<svg xmlns="http://www.w3.org/2000/svg" xmlns:xlink="http://www.w3.org/1999/xlink" width="1920" zoomAndPan="magnify" viewBox="0 0 1440 809.999993" height="1080" preserveAspectRatio="xMidYMid meet" version="1.0"><defs><g/></defs><rect x="-144" width="1728" fill="#ffffff" y="-80.999999" height="971.999992" fill-opacity="1"/><rect x="-144" width="1728" fill="#ffffff" y="-80.999999" height="971.999992" fill-opacity="1"/><g fill="#000000" fill-opacity="1"><g transform="translate(150.234374, 346.603596)"><g><path d="M 36.15625 -55.03125 C 30.914062 -55.03125 26.859375 -53.0625 23.984375 -49.125 C 21.109375 -45.1875 19.671875 -39.695312 19.671875 -32.65625 C 19.671875 -18.007812 25.164062 -10.6875 36.15625 -10.6875 C 40.769531 -10.6875 46.359375 -11.84375 52.921875 -14.15625 L 52.921875 -2.46875 C 47.523438 -0.21875 41.503906 0.90625 34.859375 0.90625 C 25.304688 0.90625 18 -1.988281 12.9375 -7.78125 C 7.875 -13.582031 5.34375 -21.90625 5.34375 -32.75 C 5.34375 -39.570312 6.582031 -45.550781 9.0625 -50.6875 C 11.550781 -55.832031 15.125 -59.773438 19.78125 -62.515625 C 24.445312 -65.253906 29.90625 -66.625 36.15625 -66.625 C 42.539062 -66.625 48.953125 -65.082031 55.390625 -62 L 50.890625 -50.671875 C 48.441406 -51.835938 45.972656 -52.851562 43.484375 -53.71875 C 40.992188 -54.59375 38.550781 -55.03125 36.15625 -55.03125 Z M 36.15625 -55.03125 "/></g></g></g><g fill="#000000" fill-opacity="1"><g transform="translate(208.852439, 346.603596)"><g><path d="M 39.078125 0 L 36.4375 -6.828125 L 36.078125 -6.828125 C 33.765625 -3.921875 31.390625 -1.90625 28.953125 -0.78125 C 26.515625 0.34375 23.332031 0.90625 19.40625 0.90625 C 14.582031 0.90625 10.785156 -0.472656 8.015625 -3.234375 C 5.242188 -5.992188 3.859375 -9.914062 3.859375 -15 C 3.859375 -20.332031 5.722656 -24.265625 9.453125 -26.796875 C 13.179688 -29.328125 18.804688 -30.726562 26.328125 -31 L 35.046875 -31.265625 L 35.046875 -33.46875 C 35.046875 -38.5625 32.4375 -41.109375 27.21875 -41.109375 C 23.207031 -41.109375 18.492188 -39.894531 13.078125 -37.46875 L 8.53125 -46.71875 C 14.3125 -49.738281 20.722656 -51.25 27.765625 -51.25 C 34.503906 -51.25 39.671875 -49.78125 43.265625 -46.84375 C 46.859375 -43.914062 48.65625 -39.457031 48.65625 -33.46875 L 48.65625 0 Z M 35.046875 -23.265625 L 29.734375 -23.09375 C 25.753906 -22.96875 22.789062 -22.242188 20.84375 -20.921875 C 18.894531 -19.609375 17.921875 -17.609375 17.921875 -14.921875 C 17.921875 -11.054688 20.140625 -9.125 24.578125 -9.125 C 27.742188 -9.125 30.28125 -10.035156 32.1875 -11.859375 C 34.09375 -13.679688 35.046875 -16.109375 35.046875 -19.140625 Z M 19.8125 -55.75 L 19.8125 -56.96875 C 24.957031 -62.957031 28.472656 -67.460938 30.359375 -70.484375 L 45.71875 -70.484375 L 45.71875 -69.546875 C 44.164062 -67.984375 41.507812 -65.664062 37.75 -62.59375 C 33.988281 -59.53125 31.046875 -57.25 28.921875 -55.75 Z M 19.8125 -55.75 "/></g></g></g><g fill="#000000" fill-opacity="1"><g transform="translate(264.416077, 346.603596)"><g><path d="M 27.578125 0.90625 C 11.953125 0.90625 4.140625 -7.675781 4.140625 -24.84375 C 4.140625 -33.375 6.265625 -39.894531 10.515625 -44.40625 C 14.765625 -48.914062 20.859375 -51.171875 28.796875 -51.171875 C 34.609375 -51.171875 39.816406 -50.03125 44.421875 -47.75 L 40.390625 -37.15625 C 38.234375 -38.019531 36.222656 -38.726562 34.359375 -39.28125 C 32.503906 -39.832031 30.648438 -40.109375 28.796875 -40.109375 C 21.671875 -40.109375 18.109375 -35.050781 18.109375 -24.9375 C 18.109375 -15.113281 21.671875 -10.203125 28.796875 -10.203125 C 31.429688 -10.203125 33.867188 -10.550781 36.109375 -11.25 C 38.359375 -11.957031 40.609375 -13.0625 42.859375 -14.5625 L 42.859375 -2.828125 C 40.640625 -1.421875 38.398438 -0.445312 36.140625 0.09375 C 33.878906 0.632812 31.023438 0.90625 27.578125 0.90625 Z M 27.578125 0.90625 "/></g></g></g><g fill="#000000" fill-opacity="1"><g transform="translate(311.714793, 346.603596)"><g/></g></g><g fill="#000000" fill-opacity="1"><g transform="translate(335.611199, 346.603596)"><g><path d="M 42.234375 -14.921875 C 42.234375 -9.765625 40.441406 -5.835938 36.859375 -3.140625 C 33.273438 -0.441406 27.921875 0.90625 20.796875 0.90625 C 17.140625 0.90625 14.023438 0.65625 11.453125 0.15625 C 8.878906 -0.332031 6.46875 -1.054688 4.21875 -2.015625 L 4.21875 -13.34375 C 6.769531 -12.144531 9.640625 -11.140625 12.828125 -10.328125 C 16.015625 -9.523438 18.820312 -9.125 21.25 -9.125 C 26.21875 -9.125 28.703125 -10.5625 28.703125 -13.4375 C 28.703125 -14.507812 28.375 -15.382812 27.71875 -16.0625 C 27.0625 -16.738281 25.921875 -17.5 24.296875 -18.34375 C 22.679688 -19.195312 20.523438 -20.195312 17.828125 -21.34375 C 13.972656 -22.957031 11.140625 -24.453125 9.328125 -25.828125 C 7.515625 -27.203125 6.195312 -28.78125 5.375 -30.5625 C 4.550781 -32.351562 4.140625 -34.550781 4.140625 -37.15625 C 4.140625 -41.613281 5.867188 -45.0625 9.328125 -47.5 C 12.785156 -49.945312 17.6875 -51.171875 24.03125 -51.171875 C 30.082031 -51.171875 35.96875 -49.851562 41.6875 -47.21875 L 37.5625 -37.328125 C 35.039062 -38.410156 32.6875 -39.296875 30.5 -39.984375 C 28.3125 -40.671875 26.082031 -41.015625 23.8125 -41.015625 C 19.769531 -41.015625 17.75 -39.921875 17.75 -37.734375 C 17.75 -36.503906 18.398438 -35.441406 19.703125 -34.546875 C 21.003906 -33.648438 23.851562 -32.316406 28.25 -30.546875 C 32.175781 -28.960938 35.050781 -27.476562 36.875 -26.09375 C 38.707031 -24.71875 40.054688 -23.128906 40.921875 -21.328125 C 41.796875 -19.535156 42.234375 -17.398438 42.234375 -14.921875 Z M 42.234375 -14.921875 "/></g></g></g><g fill="#000000" fill-opacity="1"><g transform="translate(381.337771, 346.603596)"><g><path d="M 20.890625 0 L 7.1875 0 L 7.1875 -69.90625 L 20.890625 -69.90625 Z M 20.890625 0 "/></g></g></g><g fill="#000000" fill-opacity="1"><g transform="translate(409.411568, 346.603596)"><g><path d="M 6.609375 -63.203125 C 6.609375 -67.671875 9.09375 -69.90625 14.0625 -69.90625 C 19.03125 -69.90625 21.515625 -67.671875 21.515625 -63.203125 C 21.515625 -61.078125 20.894531 -59.421875 19.65625 -58.234375 C 18.414062 -57.054688 16.550781 -56.46875 14.0625 -56.46875 C 9.09375 -56.46875 6.609375 -58.710938 6.609375 -63.203125 Z M 20.890625 0 L 7.1875 0 L 7.1875 -50.21875 L 20.890625 -50.21875 Z M 20.890625 0 "/></g></g></g><g fill="#000000" fill-opacity="1"><g transform="translate(437.485366, 346.603596)"><g><path d="M 23.09375 0.90625 C 17.1875 0.90625 12.550781 -1.382812 9.1875 -5.96875 C 5.820312 -10.550781 4.140625 -16.898438 4.140625 -25.015625 C 4.140625 -33.253906 5.851562 -39.671875 9.28125 -44.265625 C 12.707031 -48.867188 17.429688 -51.171875 23.453125 -51.171875 C 29.765625 -51.171875 34.585938 -48.710938 37.921875 -43.796875 L 38.359375 -43.796875 C 37.671875 -47.546875 37.328125 -50.882812 37.328125 -53.8125 L 37.328125 -69.90625 L 51.078125 -69.90625 L 51.078125 0 L 40.5625 0 L 37.921875 -6.515625 L 37.328125 -6.515625 C 34.210938 -1.566406 29.46875 0.90625 23.09375 0.90625 Z M 27.890625 -10.015625 C 31.398438 -10.015625 33.96875 -11.03125 35.59375 -13.0625 C 37.226562 -15.101562 38.125 -18.566406 38.28125 -23.453125 L 38.28125 -24.9375 C 38.28125 -30.320312 37.445312 -34.179688 35.78125 -36.515625 C 34.113281 -38.859375 31.410156 -40.03125 27.671875 -40.03125 C 24.617188 -40.03125 22.242188 -38.734375 20.546875 -36.140625 C 18.859375 -33.546875 18.015625 -29.78125 18.015625 -24.84375 C 18.015625 -19.90625 18.867188 -16.195312 20.578125 -13.71875 C 22.285156 -11.25 24.722656 -10.015625 27.890625 -10.015625 Z M 27.890625 -10.015625 "/></g></g></g><g fill="#000000" fill-opacity="1"><g transform="translate(495.699169, 346.603596)"><g><path d="M 27.984375 -41.421875 C 25.078125 -41.421875 22.800781 -40.5 21.15625 -38.65625 C 19.507812 -36.8125 18.566406 -34.195312 18.328125 -30.8125 L 37.5625 -30.8125 C 37.5 -34.195312 36.613281 -36.8125 34.90625 -38.65625 C 33.195312 -40.5 30.890625 -41.421875 27.984375 -41.421875 Z M 29.921875 0.90625 C 21.835938 0.90625 15.519531 -1.320312 10.96875 -5.78125 C 6.414062 -10.25 4.140625 -16.570312 4.140625 -24.75 C 4.140625 -33.164062 6.238281 -39.671875 10.4375 -44.265625 C 14.644531 -48.867188 20.460938 -51.171875 27.890625 -51.171875 C 34.992188 -51.171875 40.519531 -49.144531 44.46875 -45.09375 C 48.425781 -41.050781 50.40625 -35.46875 50.40625 -28.34375 L 50.40625 -21.703125 L 18.015625 -21.703125 C 18.160156 -17.804688 19.3125 -14.765625 21.46875 -12.578125 C 23.625 -10.390625 26.648438 -9.296875 30.546875 -9.296875 C 33.566406 -9.296875 36.425781 -9.609375 39.125 -10.234375 C 41.820312 -10.867188 44.640625 -11.875 47.578125 -13.25 L 47.578125 -2.65625 C 45.179688 -1.457031 42.617188 -0.566406 39.890625 0.015625 C 37.160156 0.609375 33.835938 0.90625 29.921875 0.90625 Z M 29.921875 0.90625 "/></g></g></g><g fill="#000000" fill-opacity="1"><g transform="translate(550.049996, 346.603596)"><g/></g></g><g fill="#000000" fill-opacity="1"><g transform="translate(573.946402, 346.603596)"><g><path d="M 23.09375 0.90625 C 17.1875 0.90625 12.550781 -1.382812 9.1875 -5.96875 C 5.820312 -10.550781 4.140625 -16.898438 4.140625 -25.015625 C 4.140625 -33.253906 5.851562 -39.671875 9.28125 -44.265625 C 12.707031 -48.867188 17.429688 -51.171875 23.453125 -51.171875 C 29.765625 -51.171875 34.585938 -48.710938 37.921875 -43.796875 L 38.359375 -43.796875 C 37.671875 -47.546875 37.328125 -50.882812 37.328125 -53.8125 L 37.328125 -69.90625 L 51.078125 -69.90625 L 51.078125 0 L 40.5625 0 L 37.921875 -6.515625 L 37.328125 -6.515625 C 34.210938 -1.566406 29.46875 0.90625 23.09375 0.90625 Z M 27.890625 -10.015625 C 31.398438 -10.015625 33.96875 -11.03125 35.59375 -13.0625 C 37.226562 -15.101562 38.125 -18.566406 38.28125 -23.453125 L 38.28125 -24.9375 C 38.28125 -30.320312 37.445312 -34.179688 35.78125 -36.515625 C 34.113281 -38.859375 31.410156 -40.03125 27.671875 -40.03125 C 24.617188 -40.03125 22.242188 -38.734375 20.546875 -36.140625 C 18.859375 -33.546875 18.015625 -29.78125 18.015625 -24.84375 C 18.015625 -19.90625 18.867188 -16.195312 20.578125 -13.71875 C 22.285156 -11.25 24.722656 -10.015625 27.890625 -10.015625 Z M 27.890625 -10.015625 "/></g></g></g><g fill="#000000" fill-opacity="1"><g transform="translate(632.160205, 346.603596)"><g><path d="M 42.765625 0 L 40.921875 -6.421875 L 40.109375 -6.421875 C 38.671875 -4.117188 36.613281 -2.320312 33.9375 -1.03125 C 31.257812 0.257812 28.195312 0.90625 24.75 0.90625 C 18.851562 0.90625 14.40625 -0.671875 11.40625 -3.828125 C 8.414062 -6.992188 6.921875 -11.539062 6.921875 -17.46875 L 6.921875 -50.21875 L 20.625 -50.21875 L 20.625 -20.890625 C 20.625 -17.265625 21.265625 -14.546875 22.546875 -12.734375 C 23.835938 -10.921875 25.890625 -10.015625 28.703125 -10.015625 C 32.535156 -10.015625 35.304688 -11.296875 37.015625 -13.859375 C 38.722656 -16.421875 39.578125 -20.664062 39.578125 -26.59375 L 39.578125 -50.21875 L 53.28125 -50.21875 L 53.28125 -44.96875 C 55.40625 -45.625 57.050781 -47.050781 58.21875 -49.25 C 59.382812 -51.457031 59.96875 -54.296875 59.96875 -57.765625 L 73.5 -57.765625 L 74.171875 -56.78125 C 73.210938 -52.113281 71.921875 -48.519531 70.296875 -46 C 68.679688 -43.488281 66.503906 -41.46875 63.765625 -39.9375 C 61.023438 -38.40625 57.53125 -37.328125 53.28125 -36.703125 L 53.28125 0 Z M 42.765625 0 "/></g></g></g><g fill="#000000" fill-opacity="1"><g transform="translate(702.052703, 346.603596)"><g><path d="M 52.828125 -25.203125 C 52.828125 -17.023438 50.671875 -10.628906 46.359375 -6.015625 C 42.046875 -1.398438 36.039062 0.90625 28.34375 0.90625 C 23.519531 0.90625 19.265625 -0.148438 15.578125 -2.265625 C 11.898438 -4.378906 9.070312 -7.410156 7.09375 -11.359375 C 5.125 -15.316406 4.140625 -19.929688 4.140625 -25.203125 C 4.140625 -33.410156 6.28125 -39.789062 10.5625 -44.34375 C 14.84375 -48.894531 20.859375 -51.171875 28.609375 -51.171875 C 31.960938 -51.171875 35.132812 -50.648438 38.125 -49.609375 C 41.125 -48.578125 43.691406 -47.03125 45.828125 -44.96875 C 50.285156 -46.3125 52.515625 -50.578125 52.515625 -57.765625 L 66.03125 -57.765625 L 66.703125 -56.78125 C 65.898438 -52.769531 64.847656 -49.585938 63.546875 -47.234375 C 62.242188 -44.878906 60.523438 -42.898438 58.390625 -41.296875 C 56.265625 -39.703125 53.632812 -38.515625 50.5 -37.734375 C 52.050781 -33.992188 52.828125 -29.816406 52.828125 -25.203125 Z M 18.109375 -25.203125 C 18.109375 -20.234375 18.921875 -16.472656 20.546875 -13.921875 C 22.179688 -11.378906 24.84375 -10.109375 28.53125 -10.109375 C 32.175781 -10.109375 34.800781 -11.375 36.40625 -13.90625 C 38.007812 -16.4375 38.8125 -20.203125 38.8125 -25.203125 C 38.8125 -30.171875 38.003906 -33.894531 36.390625 -36.375 C 34.773438 -38.863281 32.125 -40.109375 28.4375 -40.109375 C 24.78125 -40.109375 22.144531 -38.875 20.53125 -36.40625 C 18.914062 -33.9375 18.109375 -30.203125 18.109375 -25.203125 Z M 20.53125 -55.75 L 20.53125 -56.96875 C 25.675781 -62.957031 29.191406 -67.460938 31.078125 -70.484375 L 46.4375 -70.484375 L 46.4375 -69.546875 C 44.882812 -67.984375 42.226562 -65.664062 38.46875 -62.59375 C 34.707031 -59.53125 31.765625 -57.25 29.640625 -55.75 Z M 20.53125 -55.75 "/></g></g></g><g fill="#000000" fill-opacity="1"><g transform="translate(764.533733, 346.603596)"><g><path d="M 6.609375 -63.203125 C 6.609375 -67.671875 9.09375 -69.90625 14.0625 -69.90625 C 19.03125 -69.90625 21.515625 -67.671875 21.515625 -63.203125 C 21.515625 -61.078125 20.894531 -59.421875 19.65625 -58.234375 C 18.414062 -57.054688 16.550781 -56.46875 14.0625 -56.46875 C 9.09375 -56.46875 6.609375 -58.710938 6.609375 -63.203125 Z M 20.890625 0 L 7.1875 0 L 7.1875 -50.21875 L 20.890625 -50.21875 Z M 20.890625 0 "/></g></g></g><g fill="#000000" fill-opacity="1"><g transform="translate(792.607508, 346.603596)"><g/></g></g><g fill="#000000" fill-opacity="1"><g transform="translate(816.503915, 346.603596)"><g><path d="M 23.09375 0.90625 C 17.164062 0.90625 12.523438 -1.28125 9.171875 -5.65625 C 5.816406 -10.03125 4.140625 -16.019531 4.140625 -23.625 C 4.140625 -31.476562 5.859375 -37.566406 9.296875 -41.890625 C 12.742188 -46.210938 17.460938 -48.375 23.453125 -48.375 C 29.859375 -48.375 34.679688 -45.921875 37.921875 -41.015625 L 38.359375 -41.015625 C 37.671875 -44.941406 37.328125 -48.414062 37.328125 -51.4375 L 37.328125 -53.734375 L 23.1875 -53.734375 L 23.1875 -62.671875 L 37.328125 -62.671875 L 37.328125 -69.90625 L 51.078125 -69.90625 L 51.078125 -62.671875 L 58.046875 -62.671875 L 58.046875 -53.734375 L 51.078125 -53.734375 L 51.078125 0 L 40.5625 0 L 37.921875 -6.515625 L 37.328125 -6.515625 C 34.210938 -1.566406 29.46875 0.90625 23.09375 0.90625 Z M 27.890625 -10.015625 C 31.398438 -10.015625 33.976562 -10.953125 35.625 -12.828125 C 37.269531 -14.703125 38.15625 -17.851562 38.28125 -22.28125 L 38.28125 -23.546875 C 38.28125 -28.453125 37.429688 -31.957031 35.734375 -34.0625 C 34.046875 -36.175781 31.359375 -37.234375 27.671875 -37.234375 C 24.617188 -37.234375 22.242188 -36.054688 20.546875 -33.703125 C 18.859375 -31.359375 18.015625 -27.941406 18.015625 -23.453125 C 18.015625 -18.984375 18.867188 -15.625 20.578125 -13.375 C 22.285156 -11.132812 24.722656 -10.015625 27.890625 -10.015625 Z M 27.890625 -10.015625 "/></g></g></g><g fill="#000000" fill-opacity="1"><g transform="translate(876.200003, 346.603596)"><g><path d="M 39.078125 0 L 36.4375 -6.828125 L 36.078125 -6.828125 C 33.765625 -3.921875 31.390625 -1.90625 28.953125 -0.78125 C 26.515625 0.34375 23.332031 0.90625 19.40625 0.90625 C 14.582031 0.90625 10.785156 -0.472656 8.015625 -3.234375 C 5.242188 -5.992188 3.859375 -9.914062 3.859375 -15 C 3.859375 -20.332031 5.722656 -24.265625 9.453125 -26.796875 C 13.179688 -29.328125 18.804688 -30.726562 26.328125 -31 L 35.046875 -31.265625 L 35.046875 -33.46875 C 35.046875 -38.5625 32.4375 -41.109375 27.21875 -41.109375 C 23.207031 -41.109375 18.492188 -39.894531 13.078125 -37.46875 L 8.53125 -46.71875 C 14.3125 -49.738281 20.722656 -51.25 27.765625 -51.25 C 34.503906 -51.25 39.671875 -49.78125 43.265625 -46.84375 C 46.859375 -43.914062 48.65625 -39.457031 48.65625 -33.46875 L 48.65625 0 Z M 35.046875 -23.265625 L 29.734375 -23.09375 C 25.753906 -22.96875 22.789062 -22.242188 20.84375 -20.921875 C 18.894531 -19.609375 17.921875 -17.609375 17.921875 -14.921875 C 17.921875 -11.054688 20.140625 -9.125 24.578125 -9.125 C 27.742188 -9.125 30.28125 -10.035156 32.1875 -11.859375 C 34.09375 -13.679688 35.046875 -16.109375 35.046875 -19.140625 Z M 37.875 -55.703125 C 33.164062 -58.484375 29.660156 -61.117188 27.359375 -63.609375 C 25.023438 -61.179688 21.59375 -58.546875 17.0625 -55.703125 L 7.953125 -55.703125 L 7.953125 -56.921875 C 13.609375 -62.578125 17.441406 -67.082031 19.453125 -70.4375 L 35.484375 -70.4375 C 36.410156 -68.875 38.019531 -66.753906 40.3125 -64.078125 C 42.601562 -61.398438 44.828125 -59.015625 46.984375 -56.921875 L 46.984375 -55.703125 Z M 37.875 -55.703125 "/></g></g></g><g fill="#000000" fill-opacity="1"><g transform="translate(931.763629, 346.603596)"><g><path d="M 0 -50.21875 L 15 -50.21875 L 24.484375 -21.96875 C 25.296875 -19.507812 25.847656 -16.601562 26.140625 -13.25 L 26.421875 -13.25 C 26.742188 -16.332031 27.382812 -19.238281 28.34375 -21.96875 L 37.640625 -50.21875 L 52.328125 -50.21875 L 31.09375 6.421875 C 29.144531 11.660156 26.363281 15.582031 22.75 18.1875 C 19.144531 20.800781 14.929688 22.109375 10.109375 22.109375 C 7.742188 22.109375 5.421875 21.851562 3.140625 21.34375 L 3.140625 10.46875 C 4.785156 10.851562 6.582031 11.046875 8.53125 11.046875 C 10.957031 11.046875 13.078125 10.304688 14.890625 8.828125 C 16.703125 7.347656 18.117188 5.109375 19.140625 2.109375 L 19.953125 -0.359375 Z M 0 -50.21875 "/></g></g></g><g fill="#000000" fill-opacity="1"><g transform="translate(984.093155, 346.603596)"><g/></g></g><g fill="#000000" fill-opacity="1"><g transform="translate(1007.989608, 346.603596)"><g><path d="M 20.890625 0 L 7.1875 0 L 7.1875 -69.90625 L 20.890625 -69.90625 Z M 20.890625 0 "/></g></g></g><g fill="#000000" fill-opacity="1"><g transform="translate(1036.063429, 346.603596)"><g><path d="M 39.078125 0 L 36.4375 -6.828125 L 36.078125 -6.828125 C 33.765625 -3.921875 31.390625 -1.90625 28.953125 -0.78125 C 26.515625 0.34375 23.332031 0.90625 19.40625 0.90625 C 14.582031 0.90625 10.785156 -0.472656 8.015625 -3.234375 C 5.242188 -5.992188 3.859375 -9.914062 3.859375 -15 C 3.859375 -20.332031 5.722656 -24.265625 9.453125 -26.796875 C 13.179688 -29.328125 18.804688 -30.726562 26.328125 -31 L 35.046875 -31.265625 L 35.046875 -33.46875 C 35.046875 -38.5625 32.4375 -41.109375 27.21875 -41.109375 C 23.207031 -41.109375 18.492188 -39.894531 13.078125 -37.46875 L 8.53125 -46.71875 C 14.3125 -49.738281 20.722656 -51.25 27.765625 -51.25 C 34.503906 -51.25 39.671875 -49.78125 43.265625 -46.84375 C 46.859375 -43.914062 48.65625 -39.457031 48.65625 -33.46875 L 48.65625 0 Z M 35.046875 -23.265625 L 29.734375 -23.09375 C 25.753906 -22.96875 22.789062 -22.242188 20.84375 -20.921875 C 18.894531 -19.609375 17.921875 -17.609375 17.921875 -14.921875 C 17.921875 -11.054688 20.140625 -9.125 24.578125 -9.125 C 27.742188 -9.125 30.28125 -10.035156 32.1875 -11.859375 C 34.09375 -13.679688 35.046875 -16.109375 35.046875 -19.140625 Z M 27.59375 -55.75 C 25.707031 -57.0625 22.9375 -59.191406 19.28125 -62.140625 C 15.625 -65.097656 12.78125 -67.566406 10.75 -69.546875 L 10.75 -70.484375 L 26.109375 -70.484375 C 27.992188 -67.460938 31.507812 -62.957031 36.65625 -56.96875 L 36.65625 -55.75 Z M 27.59375 -55.75 "/></g></g></g><g fill="#000000" fill-opacity="1"><g transform="translate(1091.627055, 346.603596)"><g/></g></g><g fill="#000000" fill-opacity="1"><g transform="translate(1115.523416, 346.603596)"><g><path d="M 23.09375 0.90625 C 17.1875 0.90625 12.550781 -1.382812 9.1875 -5.96875 C 5.820312 -10.550781 4.140625 -16.898438 4.140625 -25.015625 C 4.140625 -33.253906 5.851562 -39.671875 9.28125 -44.265625 C 12.707031 -48.867188 17.429688 -51.171875 23.453125 -51.171875 C 29.765625 -51.171875 34.585938 -48.710938 37.921875 -43.796875 L 38.359375 -43.796875 C 37.671875 -47.546875 37.328125 -50.882812 37.328125 -53.8125 L 37.328125 -69.90625 L 51.078125 -69.90625 L 51.078125 0 L 40.5625 0 L 37.921875 -6.515625 L 37.328125 -6.515625 C 34.210938 -1.566406 29.46875 0.90625 23.09375 0.90625 Z M 27.890625 -10.015625 C 31.398438 -10.015625 33.96875 -11.03125 35.59375 -13.0625 C 37.226562 -15.101562 38.125 -18.566406 38.28125 -23.453125 L 38.28125 -24.9375 C 38.28125 -30.320312 37.445312 -34.179688 35.78125 -36.515625 C 34.113281 -38.859375 31.410156 -40.03125 27.671875 -40.03125 C 24.617188 -40.03125 22.242188 -38.734375 20.546875 -36.140625 C 18.859375 -33.546875 18.015625 -29.78125 18.015625 -24.84375 C 18.015625 -19.90625 18.867188 -16.195312 20.578125 -13.71875 C 22.285156 -11.25 24.722656 -10.015625 27.890625 -10.015625 Z M 27.890625 -10.015625 "/></g></g></g><g fill="#000000" fill-opacity="1"><g transform="translate(1173.737219, 346.603596)"><g><path d="M 39.078125 0 L 36.4375 -6.828125 L 36.078125 -6.828125 C 33.765625 -3.921875 31.390625 -1.90625 28.953125 -0.78125 C 26.515625 0.34375 23.332031 0.90625 19.40625 0.90625 C 14.582031 0.90625 10.785156 -0.472656 8.015625 -3.234375 C 5.242188 -5.992188 3.859375 -9.914062 3.859375 -15 C 3.859375 -20.332031 5.722656 -24.265625 9.453125 -26.796875 C 13.179688 -29.328125 18.804688 -30.726562 26.328125 -31 L 35.046875 -31.265625 L 35.046875 -33.46875 C 35.046875 -38.5625 32.4375 -41.109375 27.21875 -41.109375 C 23.207031 -41.109375 18.492188 -39.894531 13.078125 -37.46875 L 8.53125 -46.71875 C 14.3125 -49.738281 20.722656 -51.25 27.765625 -51.25 C 34.503906 -51.25 39.671875 -49.78125 43.265625 -46.84375 C 46.859375 -43.914062 48.65625 -39.457031 48.65625 -33.46875 L 48.65625 0 Z M 35.046875 -23.265625 L 29.734375 -23.09375 C 25.753906 -22.96875 22.789062 -22.242188 20.84375 -20.921875 C 18.894531 -19.609375 17.921875 -17.609375 17.921875 -14.921875 C 17.921875 -11.054688 20.140625 -9.125 24.578125 -9.125 C 27.742188 -9.125 30.28125 -10.035156 32.1875 -11.859375 C 34.09375 -13.679688 35.046875 -16.109375 35.046875 -19.140625 Z M 44.5625 -55.75 L 38.171875 -55.75 C 33.953125 -57.875 30.492188 -60.148438 27.796875 -62.578125 C 25.316406 -60.359375 21.84375 -58.082031 17.375 -55.75 L 11.046875 -55.75 L 11.046875 -56.96875 C 16.140625 -61.875 19.671875 -65.765625 21.640625 -68.640625 L 33.953125 -68.640625 C 35.390625 -66.578125 37.066406 -64.554688 38.984375 -62.578125 C 40.898438 -60.597656 42.757812 -58.726562 44.5625 -56.96875 Z M 34.3125 -71.203125 C 33 -71.203125 31.742188 -71.40625 30.546875 -71.8125 C 29.347656 -72.21875 28.210938 -72.664062 27.140625 -73.15625 C 26.078125 -73.644531 25.070312 -74.097656 24.125 -74.515625 C 23.1875 -74.941406 22.300781 -75.15625 21.46875 -75.15625 C 20.144531 -75.15625 19.179688 -74.847656 18.578125 -74.234375 C 17.984375 -73.617188 17.492188 -72.609375 17.109375 -71.203125 L 11.5 -71.203125 C 11.820312 -74.492188 12.84375 -77.082031 14.5625 -78.96875 C 16.289062 -80.851562 18.59375 -81.796875 21.46875 -81.796875 C 22.9375 -81.796875 24.273438 -81.585938 25.484375 -81.171875 C 26.703125 -80.753906 27.84375 -80.296875 28.90625 -79.796875 C 29.96875 -79.304688 30.953125 -78.859375 31.859375 -78.453125 C 32.773438 -78.046875 33.679688 -77.84375 34.578125 -77.84375 C 35.835938 -77.84375 36.773438 -78.171875 37.390625 -78.828125 C 38.003906 -79.492188 38.460938 -80.484375 38.765625 -81.796875 L 44.375 -81.796875 C 43.957031 -78.359375 42.894531 -75.734375 41.1875 -73.921875 C 39.476562 -72.109375 37.1875 -71.203125 34.3125 -71.203125 Z M 34.3125 -71.203125 "/></g></g></g><g fill="#000000" fill-opacity="1"><g transform="translate(1229.300845, 346.603596)"><g><path d="M 53.546875 0 L 39.84375 0 L 39.84375 -29.328125 C 39.84375 -32.953125 39.195312 -35.671875 37.90625 -37.484375 C 36.625 -39.296875 34.578125 -40.203125 31.765625 -40.203125 C 27.929688 -40.203125 25.160156 -38.921875 23.453125 -36.359375 C 21.742188 -33.804688 20.890625 -29.5625 20.890625 -23.625 L 20.890625 0 L 7.1875 0 L 7.1875 -50.21875 L 17.65625 -50.21875 L 19.5 -43.796875 L 20.265625 -43.796875 C 21.785156 -46.222656 23.882812 -48.054688 26.5625 -49.296875 C 29.25 -50.546875 32.300781 -51.171875 35.71875 -51.171875 C 41.550781 -51.171875 45.976562 -49.585938 49 -46.421875 C 52.03125 -43.265625 53.546875 -38.707031 53.546875 -32.75 Z M 53.546875 0 "/></g></g></g><g fill="#000000" fill-opacity="1"><g transform="translate(227.085932, 474.85359)"><g><path d="M 27.578125 0.90625 C 11.953125 0.90625 4.140625 -7.675781 4.140625 -24.84375 C 4.140625 -33.375 6.265625 -39.894531 10.515625 -44.40625 C 14.765625 -48.914062 20.859375 -51.171875 28.796875 -51.171875 C 34.609375 -51.171875 39.816406 -50.03125 44.421875 -47.75 L 40.390625 -37.15625 C 38.234375 -38.019531 36.222656 -38.726562 34.359375 -39.28125 C 32.503906 -39.832031 30.648438 -40.109375 28.796875 -40.109375 C 21.671875 -40.109375 18.109375 -35.050781 18.109375 -24.9375 C 18.109375 -15.113281 21.671875 -10.203125 28.796875 -10.203125 C 31.429688 -10.203125 33.867188 -10.550781 36.109375 -11.25 C 38.359375 -11.957031 40.609375 -13.0625 42.859375 -14.5625 L 42.859375 -2.828125 C 40.640625 -1.421875 38.398438 -0.445312 36.140625 0.09375 C 33.878906 0.632812 31.023438 0.90625 27.578125 0.90625 Z M 27.578125 0.90625 "/></g></g></g><g fill="#000000" fill-opacity="1"><g transform="translate(274.384648, 474.85359)"><g><path d="M 53.546875 0 L 39.84375 0 L 39.84375 -29.328125 C 39.84375 -36.578125 37.148438 -40.203125 31.765625 -40.203125 C 27.929688 -40.203125 25.160156 -38.898438 23.453125 -36.296875 C 21.742188 -33.691406 20.890625 -29.46875 20.890625 -23.625 L 20.890625 0 L 7.1875 0 L 7.1875 -69.90625 L 20.890625 -69.90625 L 20.890625 -55.65625 C 20.890625 -54.550781 20.785156 -51.945312 20.578125 -47.84375 L 20.265625 -43.796875 L 20.984375 -43.796875 C 24.035156 -48.710938 28.882812 -51.171875 35.53125 -51.171875 C 41.4375 -51.171875 45.914062 -49.582031 48.96875 -46.40625 C 52.019531 -43.226562 53.546875 -38.675781 53.546875 -32.75 Z M 53.546875 0 "/></g></g></g><g fill="#000000" fill-opacity="1"><g transform="translate(334.844354, 474.85359)"><g><path d="M 42.765625 0 L 40.921875 -6.421875 L 40.109375 -6.421875 C 38.671875 -4.117188 36.613281 -2.320312 33.9375 -1.03125 C 31.257812 0.257812 28.195312 0.90625 24.75 0.90625 C 18.851562 0.90625 14.40625 -0.671875 11.40625 -3.828125 C 8.414062 -6.992188 6.921875 -11.539062 6.921875 -17.46875 L 6.921875 -50.21875 L 20.625 -50.21875 L 20.625 -20.890625 C 20.625 -17.265625 21.265625 -14.546875 22.546875 -12.734375 C 23.835938 -10.921875 25.890625 -10.015625 28.703125 -10.015625 C 32.535156 -10.015625 35.304688 -11.296875 37.015625 -13.859375 C 38.722656 -16.421875 39.578125 -20.664062 39.578125 -26.59375 L 39.578125 -50.21875 L 53.28125 -50.21875 L 53.28125 -44.96875 C 55.40625 -45.625 57.050781 -47.050781 58.21875 -49.25 C 59.382812 -51.457031 59.96875 -54.296875 59.96875 -57.765625 L 73.5 -57.765625 L 74.171875 -56.78125 C 73.210938 -52.113281 71.921875 -48.519531 70.296875 -46 C 68.679688 -43.488281 66.503906 -41.46875 63.765625 -39.9375 C 61.023438 -38.40625 57.53125 -37.328125 53.28125 -36.703125 L 53.28125 0 Z M 22.5625 -55.75 L 22.5625 -56.96875 C 27.707031 -62.957031 31.222656 -67.460938 33.109375 -70.484375 L 48.46875 -70.484375 L 48.46875 -69.546875 C 46.914062 -67.984375 44.257812 -65.664062 40.5 -62.59375 C 36.738281 -59.53125 33.796875 -57.25 31.671875 -55.75 Z M 22.5625 -55.75 "/></g></g></g><g fill="#000000" fill-opacity="1"><g transform="translate(404.736852, 474.85359)"><g><path d="M 53.546875 0 L 39.84375 0 L 39.84375 -29.328125 C 39.84375 -32.953125 39.195312 -35.671875 37.90625 -37.484375 C 36.625 -39.296875 34.578125 -40.203125 31.765625 -40.203125 C 27.929688 -40.203125 25.160156 -38.921875 23.453125 -36.359375 C 21.742188 -33.804688 20.890625 -29.5625 20.890625 -23.625 L 20.890625 0 L 7.1875 0 L 7.1875 -50.21875 L 17.65625 -50.21875 L 19.5 -43.796875 L 20.265625 -43.796875 C 21.785156 -46.222656 23.882812 -48.054688 26.5625 -49.296875 C 29.25 -50.546875 32.300781 -51.171875 35.71875 -51.171875 C 41.550781 -51.171875 45.976562 -49.585938 49 -46.421875 C 52.03125 -43.265625 53.546875 -38.707031 53.546875 -32.75 Z M 53.546875 0 "/></g></g></g><g fill="#000000" fill-opacity="1"><g transform="translate(465.196547, 474.85359)"><g><path d="M 27.984375 -9.84375 C 31.671875 -9.84375 34.304688 -10.894531 35.890625 -13 C 37.484375 -15.113281 38.28125 -18.535156 38.28125 -23.265625 L 38.28125 -24.9375 C 38.28125 -30.289062 37.445312 -34.144531 35.78125 -36.5 C 34.113281 -38.851562 31.441406 -40.03125 27.765625 -40.03125 C 21.328125 -40.03125 18.109375 -34.96875 18.109375 -24.84375 C 18.109375 -19.8125 18.90625 -16.050781 20.5 -13.5625 C 22.101562 -11.082031 24.597656 -9.84375 27.984375 -9.84375 Z M 51.078125 0.09375 C 51.078125 7.3125 48.972656 12.785156 44.765625 16.515625 C 40.554688 20.242188 34.289062 22.109375 25.96875 22.109375 C 18.625 22.109375 12.363281 21.117188 7.1875 19.140625 L 7.1875 8.171875 C 13.269531 10.753906 19.800781 12.046875 26.78125 12.046875 C 33.8125 12.046875 37.328125 8.238281 37.328125 0.625 L 37.328125 -0.359375 L 37.734375 -6.515625 L 37.328125 -6.515625 C 34.128906 -1.566406 29.382812 0.90625 23.09375 0.90625 C 17.070312 0.90625 12.40625 -1.414062 9.09375 -6.0625 C 5.789062 -10.707031 4.140625 -17.023438 4.140625 -25.015625 C 4.140625 -33.253906 5.851562 -39.671875 9.28125 -44.265625 C 12.707031 -48.867188 17.429688 -51.171875 23.453125 -51.171875 C 29.617188 -51.171875 34.46875 -48.710938 38 -43.796875 L 38.359375 -43.796875 L 39.484375 -50.21875 L 51.078125 -50.21875 Z M 51.078125 0.09375 "/></g></g></g><g fill="#000000" fill-opacity="1"><g transform="translate(523.41035, 474.85359)"><g><path d="M 20.625 -9.65625 C 19.0625 -3.601562 16.425781 3.566406 12.71875 11.859375 L 2.828125 11.859375 C 4.773438 3.890625 6.289062 -3.625 7.375 -10.6875 L 19.953125 -10.6875 Z M 20.625 -9.65625 "/></g></g></g><g fill="#000000" fill-opacity="1"><g transform="translate(549.642495, 474.85359)"><g/></g></g><g fill="#000000" fill-opacity="1"><g transform="translate(573.538902, 474.85359)"><g><path d="M 27.578125 0.90625 C 11.953125 0.90625 4.140625 -7.675781 4.140625 -24.84375 C 4.140625 -33.375 6.265625 -39.894531 10.515625 -44.40625 C 14.765625 -48.914062 20.859375 -51.171875 28.796875 -51.171875 C 34.609375 -51.171875 39.816406 -50.03125 44.421875 -47.75 L 40.390625 -37.15625 C 38.234375 -38.019531 36.222656 -38.726562 34.359375 -39.28125 C 32.503906 -39.832031 30.648438 -40.109375 28.796875 -40.109375 C 21.671875 -40.109375 18.109375 -35.050781 18.109375 -24.9375 C 18.109375 -15.113281 21.671875 -10.203125 28.796875 -10.203125 C 31.429688 -10.203125 33.867188 -10.550781 36.109375 -11.25 C 38.359375 -11.957031 40.609375 -13.0625 42.859375 -14.5625 L 42.859375 -2.828125 C 40.640625 -1.421875 38.398438 -0.445312 36.140625 0.09375 C 33.878906 0.632812 31.023438 0.90625 27.578125 0.90625 Z M 27.578125 0.90625 "/></g></g></g><g fill="#000000" fill-opacity="1"><g transform="translate(620.837651, 474.85359)"><g><path d="M 39.078125 0 L 36.4375 -6.828125 L 36.078125 -6.828125 C 33.765625 -3.921875 31.390625 -1.90625 28.953125 -0.78125 C 26.515625 0.34375 23.332031 0.90625 19.40625 0.90625 C 14.582031 0.90625 10.785156 -0.472656 8.015625 -3.234375 C 5.242188 -5.992188 3.859375 -9.914062 3.859375 -15 C 3.859375 -20.332031 5.722656 -24.265625 9.453125 -26.796875 C 13.179688 -29.328125 18.804688 -30.726562 26.328125 -31 L 35.046875 -31.265625 L 35.046875 -33.46875 C 35.046875 -38.5625 32.4375 -41.109375 27.21875 -41.109375 C 23.207031 -41.109375 18.492188 -39.894531 13.078125 -37.46875 L 8.53125 -46.71875 C 14.3125 -49.738281 20.722656 -51.25 27.765625 -51.25 C 34.503906 -51.25 39.671875 -49.78125 43.265625 -46.84375 C 46.859375 -43.914062 48.65625 -39.457031 48.65625 -33.46875 L 48.65625 0 Z M 35.046875 -23.265625 L 29.734375 -23.09375 C 25.753906 -22.96875 22.789062 -22.242188 20.84375 -20.921875 C 18.894531 -19.609375 17.921875 -17.609375 17.921875 -14.921875 C 17.921875 -11.054688 20.140625 -9.125 24.578125 -9.125 C 27.742188 -9.125 30.28125 -10.035156 32.1875 -11.859375 C 34.09375 -13.679688 35.046875 -16.109375 35.046875 -19.140625 Z M 19.8125 -55.75 L 19.8125 -56.96875 C 24.957031 -62.957031 28.472656 -67.460938 30.359375 -70.484375 L 45.71875 -70.484375 L 45.71875 -69.546875 C 44.164062 -67.984375 41.507812 -65.664062 37.75 -62.59375 C 33.988281 -59.53125 31.046875 -57.25 28.921875 -55.75 Z M 19.8125 -55.75 "/></g></g></g><g fill="#000000" fill-opacity="1"><g transform="translate(676.401277, 474.85359)"><g><path d="M 27.578125 0.90625 C 11.953125 0.90625 4.140625 -7.675781 4.140625 -24.84375 C 4.140625 -33.375 6.265625 -39.894531 10.515625 -44.40625 C 14.765625 -48.914062 20.859375 -51.171875 28.796875 -51.171875 C 34.609375 -51.171875 39.816406 -50.03125 44.421875 -47.75 L 40.390625 -37.15625 C 38.234375 -38.019531 36.222656 -38.726562 34.359375 -39.28125 C 32.503906 -39.832031 30.648438 -40.109375 28.796875 -40.109375 C 21.671875 -40.109375 18.109375 -35.050781 18.109375 -24.9375 C 18.109375 -15.113281 21.671875 -10.203125 28.796875 -10.203125 C 31.429688 -10.203125 33.867188 -10.550781 36.109375 -11.25 C 38.359375 -11.957031 40.609375 -13.0625 42.859375 -14.5625 L 42.859375 -2.828125 C 40.640625 -1.421875 38.398438 -0.445312 36.140625 0.09375 C 33.878906 0.632812 31.023438 0.90625 27.578125 0.90625 Z M 27.578125 0.90625 "/></g></g></g><g fill="#000000" fill-opacity="1"><g transform="translate(723.699981, 474.85359)"><g/></g></g><g fill="#000000" fill-opacity="1"><g transform="translate(747.596387, 474.85359)"><g><path d="M 35.125 -51.171875 C 41.0625 -51.171875 45.707031 -48.851562 49.0625 -44.21875 C 52.414062 -39.59375 54.09375 -33.253906 54.09375 -25.203125 C 54.09375 -16.910156 52.359375 -10.484375 48.890625 -5.921875 C 45.429688 -1.367188 40.722656 0.90625 34.765625 0.90625 C 28.867188 0.90625 24.242188 -1.238281 20.890625 -5.53125 L 19.953125 -5.53125 L 17.65625 0 L 7.1875 0 L 7.1875 -69.90625 L 20.890625 -69.90625 L 20.890625 -53.640625 C 20.890625 -51.566406 20.707031 -48.253906 20.34375 -43.703125 L 20.890625 -43.703125 C 24.097656 -48.679688 28.84375 -51.171875 35.125 -51.171875 Z M 30.734375 -40.203125 C 27.347656 -40.203125 24.875 -39.160156 23.3125 -37.078125 C 21.757812 -35.003906 20.953125 -31.570312 20.890625 -26.78125 L 20.890625 -25.296875 C 20.890625 -19.898438 21.691406 -16.035156 23.296875 -13.703125 C 24.898438 -11.367188 27.4375 -10.203125 30.90625 -10.203125 C 33.71875 -10.203125 35.953125 -11.492188 37.609375 -14.078125 C 39.273438 -16.671875 40.109375 -20.4375 40.109375 -25.375 C 40.109375 -30.320312 39.269531 -34.03125 37.59375 -36.5 C 35.914062 -38.96875 33.628906 -40.203125 30.734375 -40.203125 Z M 30.734375 -40.203125 "/></g></g></g><g fill="#000000" fill-opacity="1"><g transform="translate(805.81019, 474.85359)"><g><path d="M 39.078125 0 L 36.4375 -6.828125 L 36.078125 -6.828125 C 33.765625 -3.921875 31.390625 -1.90625 28.953125 -0.78125 C 26.515625 0.34375 23.332031 0.90625 19.40625 0.90625 C 14.582031 0.90625 10.785156 -0.472656 8.015625 -3.234375 C 5.242188 -5.992188 3.859375 -9.914062 3.859375 -15 C 3.859375 -20.332031 5.722656 -24.265625 9.453125 -26.796875 C 13.179688 -29.328125 18.804688 -30.726562 26.328125 -31 L 35.046875 -31.265625 L 35.046875 -33.46875 C 35.046875 -38.5625 32.4375 -41.109375 27.21875 -41.109375 C 23.207031 -41.109375 18.492188 -39.894531 13.078125 -37.46875 L 8.53125 -46.71875 C 14.3125 -49.738281 20.722656 -51.25 27.765625 -51.25 C 34.503906 -51.25 39.671875 -49.78125 43.265625 -46.84375 C 46.859375 -43.914062 48.65625 -39.457031 48.65625 -33.46875 L 48.65625 0 Z M 35.046875 -23.265625 L 29.734375 -23.09375 C 25.753906 -22.96875 22.789062 -22.242188 20.84375 -20.921875 C 18.894531 -19.609375 17.921875 -17.609375 17.921875 -14.921875 C 17.921875 -11.054688 20.140625 -9.125 24.578125 -9.125 C 27.742188 -9.125 30.28125 -10.035156 32.1875 -11.859375 C 34.09375 -13.679688 35.046875 -16.109375 35.046875 -19.140625 Z M 27.59375 -55.75 C 25.707031 -57.0625 22.9375 -59.191406 19.28125 -62.140625 C 15.625 -65.097656 12.78125 -67.566406 10.75 -69.546875 L 10.75 -70.484375 L 26.109375 -70.484375 C 27.992188 -67.460938 31.507812 -62.957031 36.65625 -56.96875 L 36.65625 -55.75 Z M 27.59375 -55.75 "/></g></g></g><g fill="#000000" fill-opacity="1"><g transform="translate(861.373817, 474.85359)"><g><path d="M 6.609375 -63.203125 C 6.609375 -67.671875 9.09375 -69.90625 14.0625 -69.90625 C 19.03125 -69.90625 21.515625 -67.671875 21.515625 -63.203125 C 21.515625 -61.078125 20.894531 -59.421875 19.65625 -58.234375 C 18.414062 -57.054688 16.550781 -56.46875 14.0625 -56.46875 C 9.09375 -56.46875 6.609375 -58.710938 6.609375 -63.203125 Z M 20.890625 0 L 7.1875 0 L 7.1875 -50.21875 L 20.890625 -50.21875 Z M 20.890625 0 "/></g></g></g><g fill="#000000" fill-opacity="1"><g transform="translate(889.447592, 474.85359)"><g/></g></g><g fill="#000000" fill-opacity="1"><g transform="translate(913.344044, 474.85359)"><g><path d="M 35.125 -51.171875 C 41.0625 -51.171875 45.707031 -48.851562 49.0625 -44.21875 C 52.414062 -39.59375 54.09375 -33.253906 54.09375 -25.203125 C 54.09375 -16.910156 52.359375 -10.484375 48.890625 -5.921875 C 45.429688 -1.367188 40.722656 0.90625 34.765625 0.90625 C 28.867188 0.90625 24.242188 -1.238281 20.890625 -5.53125 L 19.953125 -5.53125 L 17.65625 0 L 7.1875 0 L 7.1875 -69.90625 L 20.890625 -69.90625 L 20.890625 -53.640625 C 20.890625 -51.566406 20.707031 -48.253906 20.34375 -43.703125 L 20.890625 -43.703125 C 24.097656 -48.679688 28.84375 -51.171875 35.125 -51.171875 Z M 30.734375 -40.203125 C 27.347656 -40.203125 24.875 -39.160156 23.3125 -37.078125 C 21.757812 -35.003906 20.953125 -31.570312 20.890625 -26.78125 L 20.890625 -25.296875 C 20.890625 -19.898438 21.691406 -16.035156 23.296875 -13.703125 C 24.898438 -11.367188 27.4375 -10.203125 30.90625 -10.203125 C 33.71875 -10.203125 35.953125 -11.492188 37.609375 -14.078125 C 39.273438 -16.671875 40.109375 -20.4375 40.109375 -25.375 C 40.109375 -30.320312 39.269531 -34.03125 37.59375 -36.5 C 35.914062 -38.96875 33.628906 -40.203125 30.734375 -40.203125 Z M 30.734375 -40.203125 "/></g></g></g><g fill="#000000" fill-opacity="1"><g transform="translate(971.557847, 474.85359)"><g><path d="M 39.078125 0 L 36.4375 -6.828125 L 36.078125 -6.828125 C 33.765625 -3.921875 31.390625 -1.90625 28.953125 -0.78125 C 26.515625 0.34375 23.332031 0.90625 19.40625 0.90625 C 14.582031 0.90625 10.785156 -0.472656 8.015625 -3.234375 C 5.242188 -5.992188 3.859375 -9.914062 3.859375 -15 C 3.859375 -20.332031 5.722656 -24.265625 9.453125 -26.796875 C 13.179688 -29.328125 18.804688 -30.726562 26.328125 -31 L 35.046875 -31.265625 L 35.046875 -33.46875 C 35.046875 -38.5625 32.4375 -41.109375 27.21875 -41.109375 C 23.207031 -41.109375 18.492188 -39.894531 13.078125 -37.46875 L 8.53125 -46.71875 C 14.3125 -49.738281 20.722656 -51.25 27.765625 -51.25 C 34.503906 -51.25 39.671875 -49.78125 43.265625 -46.84375 C 46.859375 -43.914062 48.65625 -39.457031 48.65625 -33.46875 L 48.65625 0 Z M 35.046875 -23.265625 L 29.734375 -23.09375 C 25.753906 -22.96875 22.789062 -22.242188 20.84375 -20.921875 C 18.894531 -19.609375 17.921875 -17.609375 17.921875 -14.921875 C 17.921875 -11.054688 20.140625 -9.125 24.578125 -9.125 C 27.742188 -9.125 30.28125 -10.035156 32.1875 -11.859375 C 34.09375 -13.679688 35.046875 -16.109375 35.046875 -19.140625 Z M 19.8125 -55.75 L 19.8125 -56.96875 C 24.957031 -62.957031 28.472656 -67.460938 30.359375 -70.484375 L 45.71875 -70.484375 L 45.71875 -69.546875 C 44.164062 -67.984375 41.507812 -65.664062 37.75 -62.59375 C 33.988281 -59.53125 31.046875 -57.25 28.921875 -55.75 Z M 19.8125 -55.75 "/></g></g></g><g fill="#000000" fill-opacity="1"><g transform="translate(1027.121474, 474.85359)"><g><path d="M 18.109375 -25.203125 C 18.109375 -20.234375 18.921875 -16.472656 20.546875 -13.921875 C 22.179688 -11.378906 24.84375 -10.109375 28.53125 -10.109375 C 32.175781 -10.109375 34.800781 -11.375 36.40625 -13.90625 C 38.007812 -16.4375 38.8125 -20.203125 38.8125 -25.203125 C 38.8125 -30.171875 38.003906 -33.894531 36.390625 -36.375 C 34.773438 -38.863281 32.125 -40.109375 28.4375 -40.109375 C 24.78125 -40.109375 22.144531 -38.875 20.53125 -36.40625 C 18.914062 -33.9375 18.109375 -30.203125 18.109375 -25.203125 Z M 52.828125 -25.203125 C 52.828125 -17.023438 50.671875 -10.628906 46.359375 -6.015625 C 42.046875 -1.398438 36.039062 0.90625 28.34375 0.90625 C 23.519531 0.90625 19.265625 -0.148438 15.578125 -2.265625 C 11.898438 -4.378906 9.070312 -7.410156 7.09375 -11.359375 C 5.125 -15.316406 4.140625 -19.929688 4.140625 -25.203125 C 4.140625 -33.410156 6.28125 -39.789062 10.5625 -44.34375 C 14.84375 -48.894531 20.859375 -51.171875 28.609375 -51.171875 C 33.429688 -51.171875 37.6875 -50.117188 41.375 -48.015625 C 45.0625 -45.921875 47.890625 -42.910156 49.859375 -38.984375 C 51.835938 -35.066406 52.828125 -30.472656 52.828125 -25.203125 Z M 52.828125 -25.203125 "/></g></g></g><g fill="#000000" fill-opacity="1"><g transform="translate(1084.077525, 474.85359)"><g/></g></g><g fill="#000000" fill-opacity="1"><g transform="translate(1107.973978, 474.85359)"><g><path d="M 5.25 -6.421875 C 5.25 -8.941406 5.921875 -10.84375 7.265625 -12.125 C 8.617188 -13.414062 10.582031 -14.0625 13.15625 -14.0625 C 15.644531 -14.0625 17.570312 -13.398438 18.9375 -12.078125 C 20.300781 -10.765625 20.984375 -8.878906 20.984375 -6.421875 C 20.984375 -4.054688 20.289062 -2.191406 18.90625 -0.828125 C 17.53125 0.535156 15.613281 1.21875 13.15625 1.21875 C 10.644531 1.21875 8.695312 0.550781 7.3125 -0.78125 C 5.9375 -2.113281 5.25 -3.992188 5.25 -6.421875 Z M 5.25 -6.421875 "/></g></g></g><g fill="#000000" fill-opacity="1"><g transform="translate(1134.206123, 474.85359)"><g><path d="M 5.25 -6.421875 C 5.25 -8.941406 5.921875 -10.84375 7.265625 -12.125 C 8.617188 -13.414062 10.582031 -14.0625 13.15625 -14.0625 C 15.644531 -14.0625 17.570312 -13.398438 18.9375 -12.078125 C 20.300781 -10.765625 20.984375 -8.878906 20.984375 -6.421875 C 20.984375 -4.054688 20.289062 -2.191406 18.90625 -0.828125 C 17.53125 0.535156 15.613281 1.21875 13.15625 1.21875 C 10.644531 1.21875 8.695312 0.550781 7.3125 -0.78125 C 5.9375 -2.113281 5.25 -3.992188 5.25 -6.421875 Z M 5.25 -6.421875 "/></g></g></g><g fill="#000000" fill-opacity="1"><g transform="translate(1160.438269, 474.85359)"><g><path d="M 5.25 -6.421875 C 5.25 -8.941406 5.921875 -10.84375 7.265625 -12.125 C 8.617188 -13.414062 10.582031 -14.0625 13.15625 -14.0625 C 15.644531 -14.0625 17.570312 -13.398438 18.9375 -12.078125 C 20.300781 -10.765625 20.984375 -8.878906 20.984375 -6.421875 C 20.984375 -4.054688 20.289062 -2.191406 18.90625 -0.828125 C 17.53125 0.535156 15.613281 1.21875 13.15625 1.21875 C 10.644531 1.21875 8.695312 0.550781 7.3125 -0.78125 C 5.9375 -2.113281 5.25 -3.992188 5.25 -6.421875 Z M 5.25 -6.421875 "/></g></g></g><g fill="#000000" fill-opacity="1"><g transform="translate(1186.670415, 474.85359)"><g><path d="M 5.25 -6.421875 C 5.25 -8.941406 5.921875 -10.84375 7.265625 -12.125 C 8.617188 -13.414062 10.582031 -14.0625 13.15625 -14.0625 C 15.644531 -14.0625 17.570312 -13.398438 18.9375 -12.078125 C 20.300781 -10.765625 20.984375 -8.878906 20.984375 -6.421875 C 20.984375 -4.054688 20.289062 -2.191406 18.90625 -0.828125 C 17.53125 0.535156 15.613281 1.21875 13.15625 1.21875 C 10.644531 1.21875 8.695312 0.550781 7.3125 -0.78125 C 5.9375 -2.113281 5.25 -3.992188 5.25 -6.421875 Z M 5.25 -6.421875 "/></g></g></g></svg>