<svg xmlns="http://www.w3.org/2000/svg" xmlns:xlink="http://www.w3.org/1999/xlink" width="1920" zoomAndPan="magnify" viewBox="0 0 1440 809.999993" height="1080" preserveAspectRatio="xMidYMid meet" version="1.0"><defs><g/></defs><rect x="-144" width="1728" fill="#ffffff" y="-80.999999" height="971.999992" fill-opacity="1"/><rect x="-144" width="1728" fill="#ffffff" y="-80.999999" height="971.999992" fill-opacity="1"/><g fill="#e69233" fill-opacity="0.4"><g transform="translate(512.154857, 281.988961)"><g><path d="M 34.265625 1.15625 C 25.242188 1.15625 18.019531 -1.675781 12.59375 -7.34375 C 7.175781 -13.007812 4.46875 -20.785156 4.46875 -30.671875 L 4.46875 -87.703125 C 4.46875 -99.984375 6.914062 -109.242188 11.8125 -115.484375 C 16.707031 -121.722656 24.382812 -124.84375 34.84375 -124.84375 C 43.96875 -124.84375 51.3125 -122.347656 56.875 -117.359375 C 62.445312 -112.367188 65.234375 -105.171875 65.234375 -95.765625 L 65.234375 -74.453125 L 40.609375 -74.453125 L 40.609375 -92.734375 C 40.609375 -96.285156 40.175781 -98.734375 39.3125 -100.078125 C 38.445312 -101.421875 36.957031 -102.09375 34.84375 -102.09375 C 32.632812 -102.09375 31.125 -101.320312 30.3125 -99.78125 C 29.5 -98.25 29.09375 -96 29.09375 -93.03125 L 29.09375 -30.953125 C 29.09375 -27.691406 29.570312 -25.316406 30.53125 -23.828125 C 31.488281 -22.335938 32.925781 -21.59375 34.84375 -21.59375 C 38.6875 -21.59375 40.609375 -24.710938 40.609375 -30.953125 L 40.609375 -53.28125 L 65.515625 -53.28125 L 65.515625 -29.953125 C 65.515625 -9.210938 55.097656 1.15625 34.265625 1.15625 Z M 34.265625 1.15625 "/></g></g></g><g fill="#e69233" fill-opacity="0.4"><g transform="translate(575.94683, 281.988961)"><g><path d="M 2.15625 0 L 14.109375 -123.703125 L 56.015625 -123.703125 L 67.828125 0 L 44.359375 0 L 42.625 -20.015625 L 27.640625 -20.015625 L 26.203125 0 Z M 29.515625 -39.75 L 40.75 -39.75 L 35.28125 -102.671875 L 34.125 -102.671875 Z M 25.34375 -137.9375 C 28.125 -139 30.234375 -140.222656 31.671875 -141.609375 C 33.109375 -143.003906 33.828125 -144.804688 33.828125 -147.015625 C 33.828125 -151.429688 31.429688 -153.640625 26.640625 -153.640625 C 24.335938 -153.640625 22.222656 -153.304688 20.296875 -152.640625 L 20.296875 -165.3125 C 24.617188 -166.84375 28.941406 -167.609375 33.265625 -167.609375 C 39.117188 -167.609375 43.703125 -166.117188 47.015625 -163.140625 C 50.328125 -160.171875 51.984375 -156.046875 51.984375 -150.765625 C 51.984375 -140.296875 45.597656 -133.09375 32.828125 -129.15625 Z M 25.34375 -137.9375 "/></g></g></g><g fill="#e69233" fill-opacity="0.4"><g transform="translate(641.322804, 281.988961)"><g><path d="M 5.46875 0 L 5.46875 -123.703125 L 43.203125 -123.703125 L 53.5625 -48.234375 L 63.9375 -123.703125 L 101.953125 -123.703125 L 101.953125 0 L 79.34375 0 L 79.34375 -89.140625 L 65.09375 0 L 42.90625 0 L 27.796875 -89.140625 L 27.796875 0 Z M 5.46875 0 "/></g></g></g><g fill="#e69233" fill-opacity="0.4"><g transform="translate(744.282752, 281.988961)"><g/></g></g><g fill="#e69233" fill-opacity="0.4"><g transform="translate(773.514738, 281.988961)"><g><path d="M 68.109375 -134.203125 C 68.109375 -125.085938 65.328125 -118.46875 59.765625 -114.34375 C 63.597656 -108.863281 65.515625 -101.613281 65.515625 -92.59375 L 65.515625 -33.703125 C 65.515625 -22.554688 62.921875 -13.957031 57.734375 -7.90625 C 52.554688 -1.863281 44.972656 1.15625 34.984375 1.15625 C 25.003906 1.15625 17.421875 -1.890625 12.234375 -7.984375 C 7.054688 -14.085938 4.46875 -22.660156 4.46875 -33.703125 L 4.46875 -92.59375 C 4.46875 -103.15625 7.082031 -111.171875 12.3125 -116.640625 C 17.539062 -122.109375 25.148438 -124.84375 35.140625 -124.84375 L 40.46875 -124.84375 C 45.84375 -124.84375 48.53125 -127.769531 48.53125 -133.625 L 48.53125 -135.21875 L 68.109375 -135.21875 Z M 40.609375 -93.03125 C 40.609375 -95.71875 40.25 -97.898438 39.53125 -99.578125 C 38.8125 -101.253906 37.347656 -102.09375 35.140625 -102.09375 C 31.003906 -102.09375 28.9375 -98.972656 28.9375 -92.734375 L 28.9375 -32.40625 C 28.9375 -28.851562 29.367188 -26.160156 30.234375 -24.328125 C 31.097656 -22.503906 32.679688 -21.59375 34.984375 -21.59375 C 37.191406 -21.59375 38.679688 -22.550781 39.453125 -24.46875 C 40.222656 -26.394531 40.609375 -29.085938 40.609375 -32.546875 Z M 40.609375 -93.03125 "/></g></g></g><g fill="#e69233" fill-opacity="0.4"><g transform="translate(839.610705, 281.988961)"><g><path d="M 5.46875 0 L 5.46875 -123.703125 L 30.953125 -123.703125 L 42.34375 -64.515625 L 42.34375 -123.703125 L 66.234375 -123.703125 L 66.234375 0 L 42.046875 0 L 29.65625 -61.921875 L 29.65625 0 Z M 5.46875 0 "/></g></g></g><g fill="#e69233" fill-opacity="0.4"><g transform="translate(906.865774, 281.988961)"><g/></g></g><g fill="#e69233" fill-opacity="0.4"><g transform="translate(419.272049, 468.738952)"><g><path d="M 34.265625 1.15625 C 25.242188 1.15625 18.019531 -1.675781 12.59375 -7.34375 C 7.175781 -13.007812 4.46875 -20.785156 4.46875 -30.671875 L 4.46875 -87.703125 C 4.46875 -99.984375 6.914062 -109.242188 11.8125 -115.484375 C 16.707031 -121.722656 24.382812 -124.84375 34.84375 -124.84375 C 43.96875 -124.84375 51.3125 -122.347656 56.875 -117.359375 C 62.445312 -112.367188 65.234375 -105.171875 65.234375 -95.765625 L 65.234375 -74.453125 L 40.609375 -74.453125 L 40.609375 -92.734375 C 40.609375 -96.285156 40.175781 -98.734375 39.3125 -100.078125 C 38.445312 -101.421875 36.957031 -102.09375 34.84375 -102.09375 C 32.632812 -102.09375 31.125 -101.320312 30.3125 -99.78125 C 29.5 -98.25 29.09375 -96 29.09375 -93.03125 L 29.09375 -30.953125 C 29.09375 -27.691406 29.570312 -25.316406 30.53125 -23.828125 C 31.488281 -22.335938 32.925781 -21.59375 34.84375 -21.59375 C 38.6875 -21.59375 40.609375 -24.710938 40.609375 -30.953125 L 40.609375 -53.28125 L 65.515625 -53.28125 L 65.515625 -29.953125 C 65.515625 -9.210938 55.097656 1.15625 34.265625 1.15625 Z M 34.265625 1.15625 "/></g></g></g><g fill="#e69233" fill-opacity="0.4"><g transform="translate(483.064022, 468.738952)"><g><path d="M 2.15625 0 L 14.109375 -123.703125 L 56.015625 -123.703125 L 67.828125 0 L 44.359375 0 L 42.625 -20.015625 L 27.640625 -20.015625 L 26.203125 0 Z M 29.515625 -39.75 L 40.75 -39.75 L 35.28125 -102.671875 L 34.125 -102.671875 Z M 18.15625 -127.4375 L 18.15625 -143.125 L 51.5625 -158.53125 L 51.5625 -134.0625 Z M 18.15625 -127.4375 "/></g></g></g><g fill="#e69233" fill-opacity="0.4"><g transform="translate(548.439996, 468.738952)"><g><path d="M 34.265625 1.15625 C 25.242188 1.15625 18.019531 -1.675781 12.59375 -7.34375 C 7.175781 -13.007812 4.46875 -20.785156 4.46875 -30.671875 L 4.46875 -87.703125 C 4.46875 -99.984375 6.914062 -109.242188 11.8125 -115.484375 C 16.707031 -121.722656 24.382812 -124.84375 34.84375 -124.84375 C 43.96875 -124.84375 51.3125 -122.347656 56.875 -117.359375 C 62.445312 -112.367188 65.234375 -105.171875 65.234375 -95.765625 L 65.234375 -74.453125 L 40.609375 -74.453125 L 40.609375 -92.734375 C 40.609375 -96.285156 40.175781 -98.734375 39.3125 -100.078125 C 38.445312 -101.421875 36.957031 -102.09375 34.84375 -102.09375 C 32.632812 -102.09375 31.125 -101.320312 30.3125 -99.78125 C 29.5 -98.25 29.09375 -96 29.09375 -93.03125 L 29.09375 -30.953125 C 29.09375 -27.691406 29.570312 -25.316406 30.53125 -23.828125 C 31.488281 -22.335938 32.925781 -21.59375 34.84375 -21.59375 C 38.6875 -21.59375 40.609375 -24.710938 40.609375 -30.953125 L 40.609375 -53.28125 L 65.515625 -53.28125 L 65.515625 -29.953125 C 65.515625 -9.210938 55.097656 1.15625 34.265625 1.15625 Z M 34.265625 1.15625 "/></g></g></g><g fill="#e69233" fill-opacity="0.4"><g transform="translate(612.231969, 468.738952)"><g/></g></g><g fill="#e69233" fill-opacity="0.4"><g transform="translate(641.463955, 468.738952)"><g><path d="M 5.46875 -123.703125 L 39.03125 -123.703125 C 48.050781 -123.703125 54.597656 -121.492188 58.671875 -117.078125 C 62.753906 -112.660156 64.796875 -105.457031 64.796875 -95.46875 L 64.796875 -90 C 64.796875 -78.1875 60.570312 -71.128906 52.125 -68.828125 C 57.3125 -67.484375 60.957031 -64.363281 63.0625 -59.46875 C 65.175781 -54.570312 66.234375 -48.09375 66.234375 -40.03125 C 66.234375 -26.875 64.265625 -16.910156 60.328125 -10.140625 C 56.398438 -3.378906 49.300781 0 39.03125 0 L 5.46875 0 Z M 34.703125 -77.1875 C 36.816406 -77.1875 38.253906 -77.976562 39.015625 -79.5625 C 39.785156 -81.144531 40.171875 -83.375 40.171875 -86.25 L 40.171875 -98.640625 C 40.171875 -102.671875 38.394531 -104.6875 34.84375 -104.6875 L 29.65625 -104.6875 L 29.65625 -77.1875 Z M 32.109375 -21.75 C 38.546875 -21.75 41.765625 -24.816406 41.765625 -30.953125 L 41.765625 -46.375 C 41.765625 -50.113281 41.210938 -52.941406 40.109375 -54.859375 C 39.003906 -56.785156 37.054688 -57.75 34.265625 -57.75 L 29.65625 -57.75 L 29.65625 -21.890625 Z M 32.109375 -21.75 "/></g></g></g><g fill="#e69233" fill-opacity="0.4"><g transform="translate(705.975923, 468.738952)"><g><path d="M 2.15625 0 L 14.109375 -123.703125 L 56.015625 -123.703125 L 67.828125 0 L 44.359375 0 L 42.625 -20.015625 L 27.640625 -20.015625 L 26.203125 0 Z M 29.515625 -39.75 L 40.75 -39.75 L 35.28125 -102.671875 L 34.125 -102.671875 Z M 22.453125 27.9375 L 22.453125 6.921875 L 47.65625 6.921875 L 47.65625 27.9375 Z M 22.453125 27.9375 "/></g></g></g><g fill="#e69233" fill-opacity="0.4"><g transform="translate(771.351896, 468.738952)"><g><path d="M 5.46875 0 L 5.46875 -123.703125 L 30.953125 -123.703125 L 42.34375 -64.515625 L 42.34375 -123.703125 L 66.234375 -123.703125 L 66.234375 0 L 42.046875 0 L 29.65625 -61.921875 L 29.65625 0 Z M 5.46875 0 "/></g></g></g><g fill="#e69233" fill-opacity="0.4"><g transform="translate(838.599848, 468.738952)"><g/></g></g><g fill="#e69233" fill-opacity="0.4"><g transform="translate(867.831856, 468.738952)"><g><path d="M 66.53125 -36.71875 C 66.625 -24.53125 64.507812 -15.363281 60.1875 -9.21875 C 55.875 -3.070312 48.722656 0 38.734375 0 L 5.46875 0 L 5.46875 -56.59375 L 0.140625 -56.59375 L 0.140625 -72.859375 L 5.46875 -72.859375 L 5.46875 -123.703125 L 39.59375 -123.703125 C 48.425781 -123.703125 55.050781 -121.253906 59.46875 -116.359375 C 63.882812 -111.460938 66.140625 -104.210938 66.234375 -94.609375 Z M 41.46875 -92.296875 C 41.46875 -95.085938 41.25 -97.175781 40.8125 -98.5625 C 40.382812 -99.957031 39.59375 -100.894531 38.4375 -101.375 C 37.289062 -101.851562 35.519531 -102.09375 33.125 -102.09375 L 30.390625 -102.09375 L 30.390625 -72.859375 L 36.4375 -72.859375 L 36.4375 -56.59375 L 30.390625 -56.59375 L 30.390625 -21.890625 L 34.703125 -21.890625 C 39.210938 -21.890625 41.46875 -24.097656 41.46875 -28.515625 Z M 41.46875 -92.296875 "/></g></g></g><g fill="#e69233" fill-opacity="0.4"><g transform="translate(934.359791, 468.738952)"><g><path d="M 2.15625 0 L 14.109375 -123.703125 L 56.015625 -123.703125 L 67.828125 0 L 44.359375 0 L 42.625 -20.015625 L 27.640625 -20.015625 L 26.203125 0 Z M 29.515625 -39.75 L 40.75 -39.75 L 35.28125 -102.671875 L 34.125 -102.671875 Z M 46.5 -131.609375 C 43.8125 -131.609375 41.335938 -131.941406 39.078125 -132.609375 C 36.828125 -133.285156 34.117188 -134.25 30.953125 -135.5 C 29.421875 -136.164062 27.929688 -136.738281 26.484375 -137.21875 C 25.046875 -137.695312 23.800781 -137.9375 22.75 -137.9375 C 19.96875 -137.9375 17.804688 -136.351562 16.265625 -133.1875 L 5.75 -138.671875 C 7.863281 -143.847656 10.144531 -147.753906 12.59375 -150.390625 C 15.039062 -153.035156 18.566406 -154.359375 23.171875 -154.359375 C 25.671875 -154.359375 27.925781 -154.070312 29.9375 -153.5 C 31.957031 -152.925781 34.597656 -152.015625 37.859375 -150.765625 C 41.316406 -149.222656 43.910156 -148.453125 45.640625 -148.453125 C 48.328125 -148.453125 50.535156 -150.179688 52.265625 -153.640625 L 63.9375 -149.890625 C 62.488281 -145.859375 61.113281 -142.617188 59.8125 -140.171875 C 58.519531 -137.722656 56.796875 -135.679688 54.640625 -134.046875 C 52.484375 -132.421875 49.769531 -131.609375 46.5 -131.609375 Z M 46.5 -131.609375 "/></g></g></g><g fill="#e69233" fill-opacity="0.4"><g transform="translate(999.73686, 468.738952)"><g/></g></g><g fill="#e69233" fill-opacity="0.4"><g transform="translate(456.71345, 655.488942)"><g><path d="M 5.46875 0 L 5.46875 -123.703125 L 30.234375 -123.703125 L 30.234375 -21.03125 L 55.734375 -21.03125 L 55.734375 0 Z M 5.46875 0 "/></g></g></g><g fill="#e69233" fill-opacity="0.4"><g transform="translate(509.417427, 655.488942)"><g><path d="M 2.15625 0 L 14.109375 -123.703125 L 56.015625 -123.703125 L 67.828125 0 L 44.359375 0 L 42.625 -20.015625 L 27.640625 -20.015625 L 26.203125 0 Z M 29.515625 -39.75 L 40.75 -39.75 L 35.28125 -102.671875 L 34.125 -102.671875 Z M 23.1875 -151.921875 L 23.1875 -159.265625 L 49.53125 -172.515625 L 49.53125 -156.390625 Z M 34.5625 -128.734375 C 30.039062 -128.734375 26.03125 -129.523438 22.53125 -131.109375 C 19.03125 -132.691406 16.316406 -134.78125 14.390625 -137.375 C 12.472656 -139.96875 11.515625 -142.65625 11.515625 -145.4375 C 11.515625 -146.78125 11.5625 -147.789062 11.65625 -148.46875 L 25.046875 -148.3125 C 25.046875 -145.34375 25.765625 -143.132812 27.203125 -141.6875 C 28.648438 -140.25 31.101562 -139.53125 34.5625 -139.53125 C 38.007812 -139.53125 40.429688 -140.25 41.828125 -141.6875 C 43.222656 -143.132812 43.921875 -145.34375 43.921875 -148.3125 L 58.03125 -148.46875 C 58.125 -147.695312 58.171875 -146.878906 58.171875 -146.015625 C 58.171875 -143.035156 57.207031 -140.222656 55.28125 -137.578125 C 53.363281 -134.941406 50.601562 -132.804688 47 -131.171875 C 43.40625 -129.546875 39.257812 -128.734375 34.5625 -128.734375 Z M 34.5625 -128.734375 "/></g></g></g><g fill="#e69233" fill-opacity="0.4"><g transform="translate(574.7934, 655.488942)"><g><path d="M 5.46875 0 L 5.46875 -123.703125 L 30.953125 -123.703125 L 42.34375 -64.515625 L 42.34375 -123.703125 L 66.234375 -123.703125 L 66.234375 0 L 42.046875 0 L 29.65625 -61.921875 L 29.65625 0 Z M 5.46875 0 "/></g></g></g><g fill="#e69233" fill-opacity="0.4"><g transform="translate(642.041364, 655.488942)"><g><path d="M 30.953125 1.15625 C 22.023438 1.15625 15.378906 -1.988281 11.015625 -8.28125 C 6.648438 -14.570312 4.46875 -24.097656 4.46875 -36.859375 L 4.46875 -90.140625 C 4.46875 -101.566406 7.007812 -110.207031 12.09375 -116.0625 C 17.1875 -121.914062 24.769531 -124.84375 34.84375 -124.84375 C 43.007812 -124.84375 49.347656 -123.210938 53.859375 -119.953125 C 58.367188 -116.691406 61.488281 -111.941406 63.21875 -105.703125 C 64.945312 -99.460938 65.8125 -91.441406 65.8125 -81.640625 L 41.609375 -81.640625 L 41.609375 -92.734375 C 41.609375 -95.710938 41.203125 -98.015625 40.390625 -99.640625 C 39.578125 -101.273438 38.113281 -102.09375 36 -102.09375 C 31.289062 -102.09375 28.9375 -99.019531 28.9375 -92.875 L 28.9375 -32.96875 C 28.9375 -29.226562 29.414062 -26.394531 30.375 -24.46875 C 31.34375 -22.550781 33.023438 -21.59375 35.421875 -21.59375 C 37.828125 -21.59375 39.507812 -22.550781 40.46875 -24.46875 C 41.425781 -26.394531 41.90625 -29.226562 41.90625 -32.96875 L 41.90625 -50.6875 L 35.28125 -50.6875 L 35.28125 -72 L 65.515625 -72 L 65.515625 0 L 55.578125 0 L 51.40625 -10.375 C 46.988281 -2.6875 40.171875 1.15625 30.953125 1.15625 Z M 30.953125 1.15625 "/></g></g></g><g fill="#e69233" fill-opacity="0.4"><g transform="translate(707.417325, 655.488942)"><g/></g></g><g fill="#e69233" fill-opacity="0.4"><g transform="translate(736.649333, 655.488942)"><g><path d="M 5.46875 0 L 5.46875 -123.703125 L 30.953125 -123.703125 L 42.34375 -64.515625 L 42.34375 -123.703125 L 66.234375 -123.703125 L 66.234375 0 L 42.046875 0 L 29.65625 -61.921875 L 29.65625 0 Z M 5.46875 0 "/></g></g></g><g fill="#e69233" fill-opacity="0.4"><g transform="translate(803.897285, 655.488942)"><g><path d="M 30.953125 1.15625 C 22.023438 1.15625 15.378906 -1.988281 11.015625 -8.28125 C 6.648438 -14.570312 4.46875 -24.097656 4.46875 -36.859375 L 4.46875 -90.140625 C 4.46875 -101.566406 7.007812 -110.207031 12.09375 -116.0625 C 17.1875 -121.914062 24.769531 -124.84375 34.84375 -124.84375 C 43.007812 -124.84375 49.347656 -123.210938 53.859375 -119.953125 C 58.367188 -116.691406 61.488281 -111.941406 63.21875 -105.703125 C 64.945312 -99.460938 65.8125 -91.441406 65.8125 -81.640625 L 41.609375 -81.640625 L 41.609375 -92.734375 C 41.609375 -95.710938 41.203125 -98.015625 40.390625 -99.640625 C 39.578125 -101.273438 38.113281 -102.09375 36 -102.09375 C 31.289062 -102.09375 28.9375 -99.019531 28.9375 -92.875 L 28.9375 -32.96875 C 28.9375 -29.226562 29.414062 -26.394531 30.375 -24.46875 C 31.34375 -22.550781 33.023438 -21.59375 35.421875 -21.59375 C 37.828125 -21.59375 39.507812 -22.550781 40.46875 -24.46875 C 41.425781 -26.394531 41.90625 -29.226562 41.90625 -32.96875 L 41.90625 -50.6875 L 35.28125 -50.6875 L 35.28125 -72 L 65.515625 -72 L 65.515625 0 L 55.578125 0 L 51.40625 -10.375 C 46.988281 -2.6875 40.171875 1.15625 30.953125 1.15625 Z M 30.953125 1.15625 "/></g></g></g><g fill="#e69233" fill-opacity="0.4"><g transform="translate(869.273259, 655.488942)"><g><path d="M 5.46875 0 L 5.46875 -123.703125 L 30.09375 -123.703125 L 30.09375 -79.484375 L 41.765625 -79.484375 L 41.765625 -123.703125 L 66.390625 -123.703125 L 66.390625 0 L 41.765625 0 L 41.765625 -56.15625 L 30.09375 -56.15625 L 30.09375 0 Z M 5.46875 0 "/></g></g></g><g fill="#e69233" fill-opacity="0.4"><g transform="translate(936.665223, 655.488942)"><g><path d="M 5.46875 0 L 5.46875 -123.703125 L 55.015625 -123.703125 L 55.015625 -99.796875 L 30.671875 -99.796875 L 30.671875 -75.75 L 54 -75.75 L 54 -52.421875 L 30.671875 -52.421875 L 30.671875 -24.046875 L 56.59375 -24.046875 L 56.59375 0 Z M 5.46875 0 "/></g></g></g><g fill="#e69233" fill-opacity="1"><g transform="translate(505.790902, 275.625006)"><g><path d="M 34.265625 1.15625 C 25.242188 1.15625 18.019531 -1.675781 12.59375 -7.34375 C 7.175781 -13.007812 4.46875 -20.785156 4.46875 -30.671875 L 4.46875 -87.703125 C 4.46875 -99.984375 6.914062 -109.242188 11.8125 -115.484375 C 16.707031 -121.722656 24.382812 -124.84375 34.84375 -124.84375 C 43.96875 -124.84375 51.3125 -122.347656 56.875 -117.359375 C 62.445312 -112.367188 65.234375 -105.171875 65.234375 -95.765625 L 65.234375 -74.453125 L 40.609375 -74.453125 L 40.609375 -92.734375 C 40.609375 -96.285156 40.175781 -98.734375 39.3125 -100.078125 C 38.445312 -101.421875 36.957031 -102.09375 34.84375 -102.09375 C 32.632812 -102.09375 31.125 -101.320312 30.3125 -99.78125 C 29.5 -98.25 29.09375 -96 29.09375 -93.03125 L 29.09375 -30.953125 C 29.09375 -27.691406 29.570312 -25.316406 30.53125 -23.828125 C 31.488281 -22.335938 32.925781 -21.59375 34.84375 -21.59375 C 38.6875 -21.59375 40.609375 -24.710938 40.609375 -30.953125 L 40.609375 -53.28125 L 65.515625 -53.28125 L 65.515625 -29.953125 C 65.515625 -9.210938 55.097656 1.15625 34.265625 1.15625 Z M 34.265625 1.15625 "/></g></g></g><g fill="#e69233" fill-opacity="1"><g transform="translate(569.582875, 275.625006)"><g><path d="M 2.15625 0 L 14.109375 -123.703125 L 56.015625 -123.703125 L 67.828125 0 L 44.359375 0 L 42.625 -20.015625 L 27.640625 -20.015625 L 26.203125 0 Z M 29.515625 -39.75 L 40.75 -39.75 L 35.28125 -102.671875 L 34.125 -102.671875 Z M 25.34375 -137.9375 C 28.125 -139 30.234375 -140.222656 31.671875 -141.609375 C 33.109375 -143.003906 33.828125 -144.804688 33.828125 -147.015625 C 33.828125 -151.429688 31.429688 -153.640625 26.640625 -153.640625 C 24.335938 -153.640625 22.222656 -153.304688 20.296875 -152.640625 L 20.296875 -165.3125 C 24.617188 -166.84375 28.941406 -167.609375 33.265625 -167.609375 C 39.117188 -167.609375 43.703125 -166.117188 47.015625 -163.140625 C 50.328125 -160.171875 51.984375 -156.046875 51.984375 -150.765625 C 51.984375 -140.296875 45.597656 -133.09375 32.828125 -129.15625 Z M 25.34375 -137.9375 "/></g></g></g><g fill="#e69233" fill-opacity="1"><g transform="translate(634.958849, 275.625006)"><g><path d="M 5.46875 0 L 5.46875 -123.703125 L 43.203125 -123.703125 L 53.5625 -48.234375 L 63.9375 -123.703125 L 101.953125 -123.703125 L 101.953125 0 L 79.34375 0 L 79.34375 -89.140625 L 65.09375 0 L 42.90625 0 L 27.796875 -89.140625 L 27.796875 0 Z M 5.46875 0 "/></g></g></g><g fill="#e69233" fill-opacity="1"><g transform="translate(737.918797, 275.625006)"><g/></g></g><g fill="#e69233" fill-opacity="1"><g transform="translate(767.150783, 275.625006)"><g><path d="M 68.109375 -134.203125 C 68.109375 -125.085938 65.328125 -118.46875 59.765625 -114.34375 C 63.597656 -108.863281 65.515625 -101.613281 65.515625 -92.59375 L 65.515625 -33.703125 C 65.515625 -22.554688 62.921875 -13.957031 57.734375 -7.90625 C 52.554688 -1.863281 44.972656 1.15625 34.984375 1.15625 C 25.003906 1.15625 17.421875 -1.890625 12.234375 -7.984375 C 7.054688 -14.085938 4.46875 -22.660156 4.46875 -33.703125 L 4.46875 -92.59375 C 4.46875 -103.15625 7.082031 -111.171875 12.3125 -116.640625 C 17.539062 -122.109375 25.148438 -124.84375 35.140625 -124.84375 L 40.46875 -124.84375 C 45.84375 -124.84375 48.53125 -127.769531 48.53125 -133.625 L 48.53125 -135.21875 L 68.109375 -135.21875 Z M 40.609375 -93.03125 C 40.609375 -95.71875 40.25 -97.898438 39.53125 -99.578125 C 38.8125 -101.253906 37.347656 -102.09375 35.140625 -102.09375 C 31.003906 -102.09375 28.9375 -98.972656 28.9375 -92.734375 L 28.9375 -32.40625 C 28.9375 -28.851562 29.367188 -26.160156 30.234375 -24.328125 C 31.097656 -22.503906 32.679688 -21.59375 34.984375 -21.59375 C 37.191406 -21.59375 38.679688 -22.550781 39.453125 -24.46875 C 40.222656 -26.394531 40.609375 -29.085938 40.609375 -32.546875 Z M 40.609375 -93.03125 "/></g></g></g><g fill="#e69233" fill-opacity="1"><g transform="translate(833.24675, 275.625006)"><g><path d="M 5.46875 0 L 5.46875 -123.703125 L 30.953125 -123.703125 L 42.34375 -64.515625 L 42.34375 -123.703125 L 66.234375 -123.703125 L 66.234375 0 L 42.046875 0 L 29.65625 -61.921875 L 29.65625 0 Z M 5.46875 0 "/></g></g></g><g fill="#e69233" fill-opacity="1"><g transform="translate(900.50182, 275.625006)"><g/></g></g><g fill="#e69233" fill-opacity="1"><g transform="translate(412.908094, 462.374997)"><g><path d="M 34.265625 1.15625 C 25.242188 1.15625 18.019531 -1.675781 12.59375 -7.34375 C 7.175781 -13.007812 4.46875 -20.785156 4.46875 -30.671875 L 4.46875 -87.703125 C 4.46875 -99.984375 6.914062 -109.242188 11.8125 -115.484375 C 16.707031 -121.722656 24.382812 -124.84375 34.84375 -124.84375 C 43.96875 -124.84375 51.3125 -122.347656 56.875 -117.359375 C 62.445312 -112.367188 65.234375 -105.171875 65.234375 -95.765625 L 65.234375 -74.453125 L 40.609375 -74.453125 L 40.609375 -92.734375 C 40.609375 -96.285156 40.175781 -98.734375 39.3125 -100.078125 C 38.445312 -101.421875 36.957031 -102.09375 34.84375 -102.09375 C 32.632812 -102.09375 31.125 -101.320312 30.3125 -99.78125 C 29.5 -98.25 29.09375 -96 29.09375 -93.03125 L 29.09375 -30.953125 C 29.09375 -27.691406 29.570312 -25.316406 30.53125 -23.828125 C 31.488281 -22.335938 32.925781 -21.59375 34.84375 -21.59375 C 38.6875 -21.59375 40.609375 -24.710938 40.609375 -30.953125 L 40.609375 -53.28125 L 65.515625 -53.28125 L 65.515625 -29.953125 C 65.515625 -9.210938 55.097656 1.15625 34.265625 1.15625 Z M 34.265625 1.15625 "/></g></g></g><g fill="#e69233" fill-opacity="1"><g transform="translate(476.700068, 462.374997)"><g><path d="M 2.15625 0 L 14.109375 -123.703125 L 56.015625 -123.703125 L 67.828125 0 L 44.359375 0 L 42.625 -20.015625 L 27.640625 -20.015625 L 26.203125 0 Z M 29.515625 -39.75 L 40.75 -39.75 L 35.28125 -102.671875 L 34.125 -102.671875 Z M 18.15625 -127.4375 L 18.15625 -143.125 L 51.5625 -158.53125 L 51.5625 -134.0625 Z M 18.15625 -127.4375 "/></g></g></g><g fill="#e69233" fill-opacity="1"><g transform="translate(542.076041, 462.374997)"><g><path d="M 34.265625 1.15625 C 25.242188 1.15625 18.019531 -1.675781 12.59375 -7.34375 C 7.175781 -13.007812 4.46875 -20.785156 4.46875 -30.671875 L 4.46875 -87.703125 C 4.46875 -99.984375 6.914062 -109.242188 11.8125 -115.484375 C 16.707031 -121.722656 24.382812 -124.84375 34.84375 -124.84375 C 43.96875 -124.84375 51.3125 -122.347656 56.875 -117.359375 C 62.445312 -112.367188 65.234375 -105.171875 65.234375 -95.765625 L 65.234375 -74.453125 L 40.609375 -74.453125 L 40.609375 -92.734375 C 40.609375 -96.285156 40.175781 -98.734375 39.3125 -100.078125 C 38.445312 -101.421875 36.957031 -102.09375 34.84375 -102.09375 C 32.632812 -102.09375 31.125 -101.320312 30.3125 -99.78125 C 29.5 -98.25 29.09375 -96 29.09375 -93.03125 L 29.09375 -30.953125 C 29.09375 -27.691406 29.570312 -25.316406 30.53125 -23.828125 C 31.488281 -22.335938 32.925781 -21.59375 34.84375 -21.59375 C 38.6875 -21.59375 40.609375 -24.710938 40.609375 -30.953125 L 40.609375 -53.28125 L 65.515625 -53.28125 L 65.515625 -29.953125 C 65.515625 -9.210938 55.097656 1.15625 34.265625 1.15625 Z M 34.265625 1.15625 "/></g></g></g><g fill="#e69233" fill-opacity="1"><g transform="translate(605.868015, 462.374997)"><g/></g></g><g fill="#e69233" fill-opacity="1"><g transform="translate(635.1, 462.374997)"><g><path d="M 5.46875 -123.703125 L 39.03125 -123.703125 C 48.050781 -123.703125 54.597656 -121.492188 58.671875 -117.078125 C 62.753906 -112.660156 64.796875 -105.457031 64.796875 -95.46875 L 64.796875 -90 C 64.796875 -78.1875 60.570312 -71.128906 52.125 -68.828125 C 57.3125 -67.484375 60.957031 -64.363281 63.0625 -59.46875 C 65.175781 -54.570312 66.234375 -48.09375 66.234375 -40.03125 C 66.234375 -26.875 64.265625 -16.910156 60.328125 -10.140625 C 56.398438 -3.378906 49.300781 0 39.03125 0 L 5.46875 0 Z M 34.703125 -77.1875 C 36.816406 -77.1875 38.253906 -77.976562 39.015625 -79.5625 C 39.785156 -81.144531 40.171875 -83.375 40.171875 -86.25 L 40.171875 -98.640625 C 40.171875 -102.671875 38.394531 -104.6875 34.84375 -104.6875 L 29.65625 -104.6875 L 29.65625 -77.1875 Z M 32.109375 -21.75 C 38.546875 -21.75 41.765625 -24.816406 41.765625 -30.953125 L 41.765625 -46.375 C 41.765625 -50.113281 41.210938 -52.941406 40.109375 -54.859375 C 39.003906 -56.785156 37.054688 -57.75 34.265625 -57.75 L 29.65625 -57.75 L 29.65625 -21.890625 Z M 32.109375 -21.75 "/></g></g></g><g fill="#e69233" fill-opacity="1"><g transform="translate(699.611968, 462.374997)"><g><path d="M 2.15625 0 L 14.109375 -123.703125 L 56.015625 -123.703125 L 67.828125 0 L 44.359375 0 L 42.625 -20.015625 L 27.640625 -20.015625 L 26.203125 0 Z M 29.515625 -39.75 L 40.75 -39.75 L 35.28125 -102.671875 L 34.125 -102.671875 Z M 22.453125 27.9375 L 22.453125 6.921875 L 47.65625 6.921875 L 47.65625 27.9375 Z M 22.453125 27.9375 "/></g></g></g><g fill="#e69233" fill-opacity="1"><g transform="translate(764.987941, 462.374997)"><g><path d="M 5.46875 0 L 5.46875 -123.703125 L 30.953125 -123.703125 L 42.34375 -64.515625 L 42.34375 -123.703125 L 66.234375 -123.703125 L 66.234375 0 L 42.046875 0 L 29.65625 -61.921875 L 29.65625 0 Z M 5.46875 0 "/></g></g></g><g fill="#e69233" fill-opacity="1"><g transform="translate(832.235893, 462.374997)"><g/></g></g><g fill="#e69233" fill-opacity="1"><g transform="translate(861.467901, 462.374997)"><g><path d="M 66.53125 -36.71875 C 66.625 -24.53125 64.507812 -15.363281 60.1875 -9.21875 C 55.875 -3.070312 48.722656 0 38.734375 0 L 5.46875 0 L 5.46875 -56.59375 L 0.140625 -56.59375 L 0.140625 -72.859375 L 5.46875 -72.859375 L 5.46875 -123.703125 L 39.59375 -123.703125 C 48.425781 -123.703125 55.050781 -121.253906 59.46875 -116.359375 C 63.882812 -111.460938 66.140625 -104.210938 66.234375 -94.609375 Z M 41.46875 -92.296875 C 41.46875 -95.085938 41.25 -97.175781 40.8125 -98.5625 C 40.382812 -99.957031 39.59375 -100.894531 38.4375 -101.375 C 37.289062 -101.851562 35.519531 -102.09375 33.125 -102.09375 L 30.390625 -102.09375 L 30.390625 -72.859375 L 36.4375 -72.859375 L 36.4375 -56.59375 L 30.390625 -56.59375 L 30.390625 -21.890625 L 34.703125 -21.890625 C 39.210938 -21.890625 41.46875 -24.097656 41.46875 -28.515625 Z M 41.46875 -92.296875 "/></g></g></g><g fill="#e69233" fill-opacity="1"><g transform="translate(927.995836, 462.374997)"><g><path d="M 2.15625 0 L 14.109375 -123.703125 L 56.015625 -123.703125 L 67.828125 0 L 44.359375 0 L 42.625 -20.015625 L 27.640625 -20.015625 L 26.203125 0 Z M 29.515625 -39.75 L 40.75 -39.75 L 35.28125 -102.671875 L 34.125 -102.671875 Z M 46.5 -131.609375 C 43.8125 -131.609375 41.335938 -131.941406 39.078125 -132.609375 C 36.828125 -133.285156 34.117188 -134.25 30.953125 -135.5 C 29.421875 -136.164062 27.929688 -136.738281 26.484375 -137.21875 C 25.046875 -137.695312 23.800781 -137.9375 22.75 -137.9375 C 19.96875 -137.9375 17.804688 -136.351562 16.265625 -133.1875 L 5.75 -138.671875 C 7.863281 -143.847656 10.144531 -147.753906 12.59375 -150.390625 C 15.039062 -153.035156 18.566406 -154.359375 23.171875 -154.359375 C 25.671875 -154.359375 27.925781 -154.070312 29.9375 -153.5 C 31.957031 -152.925781 34.597656 -152.015625 37.859375 -150.765625 C 41.316406 -149.222656 43.910156 -148.453125 45.640625 -148.453125 C 48.328125 -148.453125 50.535156 -150.179688 52.265625 -153.640625 L 63.9375 -149.890625 C 62.488281 -145.859375 61.113281 -142.617188 59.8125 -140.171875 C 58.519531 -137.722656 56.796875 -135.679688 54.640625 -134.046875 C 52.484375 -132.421875 49.769531 -131.609375 46.5 -131.609375 Z M 46.5 -131.609375 "/></g></g></g><g fill="#e69233" fill-opacity="1"><g transform="translate(993.372905, 462.374997)"><g/></g></g><g fill="#e69233" fill-opacity="1"><g transform="translate(450.349495, 649.124987)"><g><path d="M 5.46875 0 L 5.46875 -123.703125 L 30.234375 -123.703125 L 30.234375 -21.03125 L 55.734375 -21.03125 L 55.734375 0 Z M 5.46875 0 "/></g></g></g><g fill="#e69233" fill-opacity="1"><g transform="translate(503.053472, 649.124987)"><g><path d="M 2.15625 0 L 14.109375 -123.703125 L 56.015625 -123.703125 L 67.828125 0 L 44.359375 0 L 42.625 -20.015625 L 27.640625 -20.015625 L 26.203125 0 Z M 29.515625 -39.75 L 40.75 -39.75 L 35.28125 -102.671875 L 34.125 -102.671875 Z M 23.1875 -151.921875 L 23.1875 -159.265625 L 49.53125 -172.515625 L 49.53125 -156.390625 Z M 34.5625 -128.734375 C 30.039062 -128.734375 26.03125 -129.523438 22.53125 -131.109375 C 19.03125 -132.691406 16.316406 -134.78125 14.390625 -137.375 C 12.472656 -139.96875 11.515625 -142.65625 11.515625 -145.4375 C 11.515625 -146.78125 11.5625 -147.789062 11.65625 -148.46875 L 25.046875 -148.3125 C 25.046875 -145.34375 25.765625 -143.132812 27.203125 -141.6875 C 28.648438 -140.25 31.101562 -139.53125 34.5625 -139.53125 C 38.007812 -139.53125 40.429688 -140.25 41.828125 -141.6875 C 43.222656 -143.132812 43.921875 -145.34375 43.921875 -148.3125 L 58.03125 -148.46875 C 58.125 -147.695312 58.171875 -146.878906 58.171875 -146.015625 C 58.171875 -143.035156 57.207031 -140.222656 55.28125 -137.578125 C 53.363281 -134.941406 50.601562 -132.804688 47 -131.171875 C 43.40625 -129.546875 39.257812 -128.734375 34.5625 -128.734375 Z M 34.5625 -128.734375 "/></g></g></g><g fill="#e69233" fill-opacity="1"><g transform="translate(568.429445, 649.124987)"><g><path d="M 5.46875 0 L 5.46875 -123.703125 L 30.953125 -123.703125 L 42.34375 -64.515625 L 42.34375 -123.703125 L 66.234375 -123.703125 L 66.234375 0 L 42.046875 0 L 29.65625 -61.921875 L 29.65625 0 Z M 5.46875 0 "/></g></g></g><g fill="#e69233" fill-opacity="1"><g transform="translate(635.677409, 649.124987)"><g><path d="M 30.953125 1.15625 C 22.023438 1.15625 15.378906 -1.988281 11.015625 -8.28125 C 6.648438 -14.570312 4.46875 -24.097656 4.46875 -36.859375 L 4.46875 -90.140625 C 4.46875 -101.566406 7.007812 -110.207031 12.09375 -116.0625 C 17.1875 -121.914062 24.769531 -124.84375 34.84375 -124.84375 C 43.007812 -124.84375 49.347656 -123.210938 53.859375 -119.953125 C 58.367188 -116.691406 61.488281 -111.941406 63.21875 -105.703125 C 64.945312 -99.460938 65.8125 -91.441406 65.8125 -81.640625 L 41.609375 -81.640625 L 41.609375 -92.734375 C 41.609375 -95.710938 41.203125 -98.015625 40.390625 -99.640625 C 39.578125 -101.273438 38.113281 -102.09375 36 -102.09375 C 31.289062 -102.09375 28.9375 -99.019531 28.9375 -92.875 L 28.9375 -32.96875 C 28.9375 -29.226562 29.414062 -26.394531 30.375 -24.46875 C 31.34375 -22.550781 33.023438 -21.59375 35.421875 -21.59375 C 37.828125 -21.59375 39.507812 -22.550781 40.46875 -24.46875 C 41.425781 -26.394531 41.90625 -29.226562 41.90625 -32.96875 L 41.90625 -50.6875 L 35.28125 -50.6875 L 35.28125 -72 L 65.515625 -72 L 65.515625 0 L 55.578125 0 L 51.40625 -10.375 C 46.988281 -2.6875 40.171875 1.15625 30.953125 1.15625 Z M 30.953125 1.15625 "/></g></g></g><g fill="#e69233" fill-opacity="1"><g transform="translate(701.05337, 649.124987)"><g/></g></g><g fill="#e69233" fill-opacity="1"><g transform="translate(730.285379, 649.124987)"><g><path d="M 5.46875 0 L 5.46875 -123.703125 L 30.953125 -123.703125 L 42.34375 -64.515625 L 42.34375 -123.703125 L 66.234375 -123.703125 L 66.234375 0 L 42.046875 0 L 29.65625 -61.921875 L 29.65625 0 Z M 5.46875 0 "/></g></g></g><g fill="#e69233" fill-opacity="1"><g transform="translate(797.53333, 649.124987)"><g><path d="M 30.953125 1.15625 C 22.023438 1.15625 15.378906 -1.988281 11.015625 -8.28125 C 6.648438 -14.570312 4.46875 -24.097656 4.46875 -36.859375 L 4.46875 -90.140625 C 4.46875 -101.566406 7.007812 -110.207031 12.09375 -116.0625 C 17.1875 -121.914062 24.769531 -124.84375 34.84375 -124.84375 C 43.007812 -124.84375 49.347656 -123.210938 53.859375 -119.953125 C 58.367188 -116.691406 61.488281 -111.941406 63.21875 -105.703125 C 64.945312 -99.460938 65.8125 -91.441406 65.8125 -81.640625 L 41.609375 -81.640625 L 41.609375 -92.734375 C 41.609375 -95.710938 41.203125 -98.015625 40.390625 -99.640625 C 39.578125 -101.273438 38.113281 -102.09375 36 -102.09375 C 31.289062 -102.09375 28.9375 -99.019531 28.9375 -92.875 L 28.9375 -32.96875 C 28.9375 -29.226562 29.414062 -26.394531 30.375 -24.46875 C 31.34375 -22.550781 33.023438 -21.59375 35.421875 -21.59375 C 37.828125 -21.59375 39.507812 -22.550781 40.46875 -24.46875 C 41.425781 -26.394531 41.90625 -29.226562 41.90625 -32.96875 L 41.90625 -50.6875 L 35.28125 -50.6875 L 35.28125 -72 L 65.515625 -72 L 65.515625 0 L 55.578125 0 L 51.40625 -10.375 C 46.988281 -2.6875 40.171875 1.15625 30.953125 1.15625 Z M 30.953125 1.15625 "/></g></g></g><g fill="#e69233" fill-opacity="1"><g transform="translate(862.909304, 649.124987)"><g><path d="M 5.46875 0 L 5.46875 -123.703125 L 30.09375 -123.703125 L 30.09375 -79.484375 L 41.765625 -79.484375 L 41.765625 -123.703125 L 66.390625 -123.703125 L 66.390625 0 L 41.765625 0 L 41.765625 -56.15625 L 30.09375 -56.15625 L 30.09375 0 Z M 5.46875 0 "/></g></g></g><g fill="#e69233" fill-opacity="1"><g transform="translate(930.301268, 649.124987)"><g><path d="M 5.46875 0 L 5.46875 -123.703125 L 55.015625 -123.703125 L 55.015625 -99.796875 L 30.671875 -99.796875 L 30.671875 -75.75 L 54 -75.75 L 54 -52.421875 L 30.671875 -52.421875 L 30.671875 -24.046875 L 56.59375 -24.046875 L 56.59375 0 Z M 5.46875 0 "/></g></g></g></svg>