<svg xmlns="http://www.w3.org/2000/svg" xmlns:xlink="http://www.w3.org/1999/xlink" width="1920" zoomAndPan="magnify" viewBox="0 0 1440 809.999993" height="1080" preserveAspectRatio="xMidYMid meet" version="1.0"><defs><g/><clipPath id="68f345e70a"><path d="M 585 78.648438 L 1440 78.648438 L 1440 80.898438 L 585 80.898438 Z M 585 78.648438 " clip-rule="nonzero"/></clipPath></defs><rect x="-144" width="1728" fill="#ffffff" y="-80.999999" height="971.999992" fill-opacity="1"/><rect x="-144" width="1728" fill="#ffffff" y="-80.999999" height="971.999992" fill-opacity="1"/><g fill="#e69233" fill-opacity="1"><g transform="translate(46.095736, 97.125015)"><g><path d="M 4.90625 0 L 0.46875 -36.125 L 7.34375 -36.125 L 10 -11.546875 L 12.34375 -36.125 L 19.234375 -36.125 L 14.78125 0 Z M 4.90625 0 "/></g></g></g><g fill="#e69233" fill-opacity="1"><g transform="translate(64.491735, 97.125015)"><g><path d="M 0.625 0 L 4.109375 -36.078125 L 16.34375 -36.078125 L 19.78125 0 L 12.9375 0 L 12.4375 -5.84375 L 8.0625 -5.84375 L 7.640625 0 Z M 8.609375 -11.59375 L 11.890625 -11.59375 L 10.296875 -29.953125 L 9.953125 -29.953125 Z M 8.609375 -11.59375 "/></g></g></g><g fill="#e69233" fill-opacity="1"><g transform="translate(83.559742, 97.125015)"><g><path d="M 1.265625 0 L 1.265625 -36.078125 L 8.234375 -36.078125 L 8.234375 0 Z M 1.265625 0 "/></g></g></g><g fill="#e69233" fill-opacity="1"><g transform="translate(91.791752, 97.125015)"><g/></g></g><g fill="#e69233" fill-opacity="1"><g transform="translate(100.31776, 97.125015)"><g><path d="M 4.703125 0 L 4.703125 -29.140625 L 0.421875 -29.140625 L 0.421875 -36.078125 L 16.21875 -36.078125 L 16.21875 -29.140625 L 11.921875 -29.140625 L 11.921875 0 Z M 4.703125 0 "/></g></g></g><g fill="#e69233" fill-opacity="1"><g transform="translate(115.647761, 97.125015)"><g><path d="M 1.59375 -36.078125 L 12.6875 -36.078125 C 14.445312 -36.078125 15.8125 -35.675781 16.78125 -34.875 C 17.75 -34.082031 18.398438 -32.960938 18.734375 -31.515625 C 19.066406 -30.078125 19.234375 -28.238281 19.234375 -26 C 19.234375 -23.957031 18.96875 -22.359375 18.4375 -21.203125 C 17.90625 -20.054688 16.984375 -19.257812 15.671875 -18.8125 C 16.753906 -18.59375 17.539062 -18.046875 18.03125 -17.171875 C 18.53125 -16.304688 18.78125 -15.132812 18.78125 -13.65625 L 18.6875 0 L 11.640625 0 L 11.640625 -14.109375 C 11.640625 -15.117188 11.441406 -15.765625 11.046875 -16.046875 C 10.648438 -16.328125 9.9375 -16.46875 8.90625 -16.46875 L 8.90625 0 L 1.59375 0 Z M 10.671875 -22.71875 C 11.679688 -22.71875 12.1875 -23.8125 12.1875 -26 C 12.1875 -26.945312 12.140625 -27.660156 12.046875 -28.140625 C 11.960938 -28.617188 11.804688 -28.945312 11.578125 -29.125 C 11.359375 -29.3125 11.039062 -29.40625 10.625 -29.40625 L 8.953125 -29.40625 L 8.953125 -22.71875 Z M 10.671875 -22.71875 "/></g></g></g><g fill="#e69233" fill-opacity="1"><g transform="translate(134.379758, 97.125015)"><g><path d="M 10.203125 0.34375 C 7.296875 0.34375 5.082031 -0.546875 3.5625 -2.328125 C 2.050781 -4.109375 1.296875 -6.609375 1.296875 -9.828125 L 1.296875 -27 C 1.296875 -30.113281 2.050781 -32.457031 3.5625 -34.03125 C 5.082031 -35.613281 7.296875 -36.40625 10.203125 -36.40625 C 13.117188 -36.40625 15.332031 -35.613281 16.84375 -34.03125 C 18.351562 -32.457031 19.109375 -30.113281 19.109375 -27 L 19.109375 -9.828125 C 19.109375 -6.578125 18.351562 -4.066406 16.84375 -2.296875 C 15.332031 -0.535156 13.117188 0.34375 10.203125 0.34375 Z M 10.203125 -6.296875 C 10.847656 -6.296875 11.28125 -6.578125 11.5 -7.140625 C 11.726562 -7.703125 11.84375 -8.484375 11.84375 -9.484375 L 11.84375 -27.125 C 11.84375 -27.914062 11.738281 -28.554688 11.53125 -29.046875 C 11.320312 -29.535156 10.894531 -29.78125 10.25 -29.78125 C 9.039062 -29.78125 8.4375 -28.867188 8.4375 -27.046875 L 8.4375 -9.453125 C 8.4375 -8.410156 8.5625 -7.625 8.8125 -7.09375 C 9.070312 -6.5625 9.535156 -6.296875 10.203125 -6.296875 Z M 15.109375 -37.171875 L 5.375 -39.09375 L 5.375 -46.234375 L 15.109375 -41.734375 Z M 15.109375 -37.171875 "/></g></g></g><g fill="#e69233" fill-opacity="1"><g transform="translate(153.489766, 97.125015)"><g/></g></g><g fill="#e69233" fill-opacity="1"><g transform="translate(162.015774, 97.125015)"><g><path d="M 10 0.34375 C 7.363281 0.34375 5.253906 -0.484375 3.671875 -2.140625 C 2.085938 -3.796875 1.296875 -6.066406 1.296875 -8.953125 L 1.296875 -25.578125 C 1.296875 -29.160156 2.007812 -31.859375 3.4375 -33.671875 C 4.875 -35.492188 7.113281 -36.40625 10.15625 -36.40625 C 12.820312 -36.40625 14.96875 -35.675781 16.59375 -34.21875 C 18.21875 -32.769531 19.03125 -30.675781 19.03125 -27.9375 L 19.03125 -21.71875 L 11.84375 -21.71875 L 11.84375 -27.046875 C 11.84375 -28.085938 11.71875 -28.800781 11.46875 -29.1875 C 11.21875 -29.582031 10.78125 -29.78125 10.15625 -29.78125 C 9.519531 -29.78125 9.082031 -29.554688 8.84375 -29.109375 C 8.601562 -28.660156 8.484375 -28 8.484375 -27.125 L 8.484375 -9.03125 C 8.484375 -8.082031 8.625 -7.390625 8.90625 -6.953125 C 9.1875 -6.515625 9.601562 -6.296875 10.15625 -6.296875 C 11.28125 -6.296875 11.84375 -7.207031 11.84375 -9.03125 L 11.84375 -15.546875 L 19.109375 -15.546875 L 19.109375 -8.734375 C 19.109375 -2.679688 16.070312 0.34375 10 0.34375 Z M 10 0.34375 "/></g></g></g><g fill="#e69233" fill-opacity="1"><g transform="translate(180.621772, 97.125015)"><g><path d="M 9.953125 0.34375 C 6.984375 0.34375 4.773438 -0.492188 3.328125 -2.171875 C 1.890625 -3.859375 1.171875 -6.351562 1.171875 -9.65625 L 1.171875 -36.078125 L 8.1875 -36.078125 L 8.1875 -9.953125 C 8.1875 -8.804688 8.296875 -7.910156 8.515625 -7.265625 C 8.742188 -6.617188 9.222656 -6.296875 9.953125 -6.296875 C 10.679688 -6.296875 11.15625 -6.609375 11.375 -7.234375 C 11.601562 -7.867188 11.71875 -8.773438 11.71875 -9.953125 L 11.71875 -36.078125 L 18.734375 -36.078125 L 18.734375 -9.65625 C 18.734375 -6.351562 18.007812 -3.859375 16.5625 -2.171875 C 15.125 -0.492188 12.921875 0.34375 9.953125 0.34375 Z M 7.1875 -40.234375 C 8 -40.535156 8.613281 -40.890625 9.03125 -41.296875 C 9.445312 -41.703125 9.65625 -42.226562 9.65625 -42.875 C 9.65625 -44.164062 8.957031 -44.8125 7.5625 -44.8125 C 6.882812 -44.8125 6.269531 -44.710938 5.71875 -44.515625 L 5.71875 -48.203125 C 6.96875 -48.648438 8.222656 -48.875 9.484375 -48.875 C 11.191406 -48.875 12.53125 -48.441406 13.5 -47.578125 C 14.46875 -46.710938 14.953125 -45.507812 14.953125 -43.96875 C 14.953125 -40.914062 13.085938 -38.816406 9.359375 -37.671875 Z M 7.1875 -40.234375 "/></g></g></g><g fill="#e69233" fill-opacity="1"><g transform="translate(199.22777, 97.125015)"><g><path d="M 0.625 0 L 4.109375 -36.078125 L 16.34375 -36.078125 L 19.78125 0 L 12.9375 0 L 12.4375 -5.84375 L 8.0625 -5.84375 L 7.640625 0 Z M 8.609375 -11.59375 L 11.890625 -11.59375 L 10.296875 -29.953125 L 9.953125 -29.953125 Z M 8.609375 -11.59375 "/></g></g></g><g fill="#e69233" fill-opacity="1"><g transform="translate(218.295778, 97.125015)"><g/></g></g><g fill="#e69233" fill-opacity="1"><g transform="translate(226.821786, 97.125015)"><g><path d="M 19.40625 -10.703125 C 19.4375 -7.148438 18.820312 -4.476562 17.5625 -2.6875 C 16.300781 -0.894531 14.210938 0 11.296875 0 L 1.59375 0 L 1.59375 -16.5 L 0.046875 -16.5 L 0.046875 -21.25 L 1.59375 -21.25 L 1.59375 -36.078125 L 11.546875 -36.078125 C 14.117188 -36.078125 16.050781 -35.363281 17.34375 -33.9375 C 18.632812 -32.507812 19.289062 -30.394531 19.3125 -27.59375 Z M 12.09375 -26.921875 C 12.09375 -27.734375 12.03125 -28.34375 11.90625 -28.75 C 11.78125 -29.15625 11.546875 -29.425781 11.203125 -29.5625 C 10.867188 -29.707031 10.351562 -29.78125 9.65625 -29.78125 L 8.859375 -29.78125 L 8.859375 -21.25 L 10.625 -21.25 L 10.625 -16.5 L 8.859375 -16.5 L 8.859375 -6.390625 L 10.125 -6.390625 C 11.4375 -6.390625 12.09375 -7.03125 12.09375 -8.3125 Z M 12.09375 -26.921875 "/></g></g></g><g fill="#e69233" fill-opacity="1"><g transform="translate(246.225792, 97.125015)"><g><path d="M 0.625 0 L 4.109375 -36.078125 L 16.34375 -36.078125 L 19.78125 0 L 12.9375 0 L 12.4375 -5.84375 L 8.0625 -5.84375 L 7.640625 0 Z M 8.609375 -11.59375 L 11.890625 -11.59375 L 10.296875 -29.953125 L 9.953125 -29.953125 Z M 6.546875 8.140625 L 6.546875 2.015625 L 13.90625 2.015625 L 13.90625 8.140625 Z M 6.546875 8.140625 "/></g></g></g><g fill="#e69233" fill-opacity="1"><g transform="translate(265.293799, 97.125015)"><g><path d="M 1.265625 0 L 1.265625 -36.078125 L 8.234375 -36.078125 L 8.234375 0 Z M 1.265625 0 "/></g></g></g><g fill="#e69233" fill-opacity="1"><g transform="translate(273.525808, 97.125015)"><g/></g></g><g fill="#e69233" fill-opacity="1"><g transform="translate(282.051817, 97.125015)"><g><path d="M 19.40625 -10.703125 C 19.4375 -7.148438 18.820312 -4.476562 17.5625 -2.6875 C 16.300781 -0.894531 14.210938 0 11.296875 0 L 1.59375 0 L 1.59375 -16.5 L 0.046875 -16.5 L 0.046875 -21.25 L 1.59375 -21.25 L 1.59375 -36.078125 L 11.546875 -36.078125 C 14.117188 -36.078125 16.050781 -35.363281 17.34375 -33.9375 C 18.632812 -32.507812 19.289062 -30.394531 19.3125 -27.59375 Z M 12.09375 -26.921875 C 12.09375 -27.734375 12.03125 -28.34375 11.90625 -28.75 C 11.78125 -29.15625 11.546875 -29.425781 11.203125 -29.5625 C 10.867188 -29.707031 10.351562 -29.78125 9.65625 -29.78125 L 8.859375 -29.78125 L 8.859375 -21.25 L 10.625 -21.25 L 10.625 -16.5 L 8.859375 -16.5 L 8.859375 -6.390625 L 10.125 -6.390625 C 11.4375 -6.390625 12.09375 -7.03125 12.09375 -8.3125 Z M 12.09375 -26.921875 "/></g></g></g><g fill="#e69233" fill-opacity="1"><g transform="translate(301.455822, 97.125015)"><g><path d="M 10.203125 0.34375 C 7.296875 0.34375 5.082031 -0.546875 3.5625 -2.328125 C 2.050781 -4.109375 1.296875 -6.609375 1.296875 -9.828125 L 1.296875 -27 C 1.296875 -30.113281 2.050781 -32.457031 3.5625 -34.03125 C 5.082031 -35.613281 7.296875 -36.40625 10.203125 -36.40625 C 13.117188 -36.40625 15.332031 -35.613281 16.84375 -34.03125 C 18.351562 -32.457031 19.109375 -30.113281 19.109375 -27 L 19.109375 -9.828125 C 19.109375 -6.578125 18.351562 -4.066406 16.84375 -2.296875 C 15.332031 -0.535156 13.117188 0.34375 10.203125 0.34375 Z M 10.203125 -6.296875 C 10.847656 -6.296875 11.28125 -6.578125 11.5 -7.140625 C 11.726562 -7.703125 11.84375 -8.484375 11.84375 -9.484375 L 11.84375 -27.125 C 11.84375 -27.914062 11.738281 -28.554688 11.53125 -29.046875 C 11.320312 -29.535156 10.894531 -29.78125 10.25 -29.78125 C 9.039062 -29.78125 8.4375 -28.867188 8.4375 -27.046875 L 8.4375 -9.453125 C 8.4375 -8.410156 8.5625 -7.625 8.8125 -7.09375 C 9.070312 -6.5625 9.535156 -6.296875 10.203125 -6.296875 Z M 10.203125 -6.296875 "/></g></g></g><g fill="#e69233" fill-opacity="1"><g transform="translate(320.56583, 97.125015)"><g><path d="M 0.625 0 L 4.109375 -36.078125 L 16.34375 -36.078125 L 19.78125 0 L 12.9375 0 L 12.4375 -5.84375 L 8.0625 -5.84375 L 7.640625 0 Z M 8.609375 -11.59375 L 11.890625 -11.59375 L 10.296875 -29.953125 L 9.953125 -29.953125 Z M 15.03125 -37.171875 L 5.296875 -39.09375 L 5.296875 -46.234375 L 15.03125 -41.734375 Z M 15.03125 -37.171875 "/></g></g></g><g fill="#e69233" fill-opacity="1"><g transform="translate(339.633837, 97.125015)"><g><path d="M 1.59375 0 L 1.59375 -36.078125 L 9.03125 -36.078125 L 12.34375 -18.8125 L 12.34375 -36.078125 L 19.3125 -36.078125 L 19.3125 0 L 12.265625 0 L 8.65625 -18.0625 L 8.65625 0 Z M 1.59375 0 "/></g></g></g><g fill="#e69233" fill-opacity="1"><g transform="translate(359.247842, 97.125015)"><g/></g></g><g fill="#e69233" fill-opacity="1"><g transform="translate(367.77385, 97.125015)"><g><path d="M 1.59375 0 L 1.59375 -36.078125 L 8.734375 -36.078125 L 8.734375 -21.625 L 12.09375 -36.078125 L 19.359375 -36.078125 L 15.328125 -19.578125 L 20.203125 0 L 12.71875 0 L 8.78125 -17.46875 L 8.78125 0 Z M 1.59375 0 "/></g></g></g><g fill="#e69233" fill-opacity="1"><g transform="translate(386.295837, 97.125015)"><g><path d="M 1.59375 0 L 1.59375 -36.078125 L 16.046875 -36.078125 L 16.046875 -29.109375 L 8.953125 -29.109375 L 8.953125 -22.09375 L 15.75 -22.09375 L 15.75 -15.28125 L 8.953125 -15.28125 L 8.953125 -7.015625 L 16.5 -7.015625 L 16.5 0 Z M 14.828125 -41.03125 L 17.1875 -45.1875 L 23.484375 -45.1875 L 19.609375 -41.03125 Z M 1.015625 -37.671875 L 5.875 -42.921875 L 11.9375 -42.921875 L 16.796875 -37.671875 L 10.921875 -37.71875 L 8.90625 -40.484375 L 6.890625 -37.71875 Z M 1.015625 -37.671875 "/></g></g></g><g fill="#e69233" fill-opacity="1"><g transform="translate(402.297836, 97.125015)"><g><path d="M 4.703125 0 L 4.703125 -29.140625 L 0.421875 -29.140625 L 0.421875 -36.078125 L 16.21875 -36.078125 L 16.21875 -29.140625 L 11.921875 -29.140625 L 11.921875 0 Z M 4.703125 0 "/></g></g></g><g fill="#e69233" fill-opacity="1"><g transform="translate(417.627836, 97.125015)"><g/></g></g><g fill="#e69233" fill-opacity="1"><g transform="translate(426.153867, 97.125015)"><g><path d="M 1.59375 -36.078125 L 11.546875 -36.078125 C 14.117188 -36.078125 16.050781 -35.363281 17.34375 -33.9375 C 18.632812 -32.507812 19.289062 -30.394531 19.3125 -27.59375 L 19.40625 -10.703125 C 19.4375 -7.148438 18.820312 -4.476562 17.5625 -2.6875 C 16.300781 -0.894531 14.210938 0 11.296875 0 L 1.59375 0 Z M 10.125 -6.390625 C 11.4375 -6.390625 12.09375 -7.03125 12.09375 -8.3125 L 12.09375 -26.921875 C 12.09375 -27.734375 12.03125 -28.34375 11.90625 -28.75 C 11.78125 -29.15625 11.546875 -29.425781 11.203125 -29.5625 C 10.867188 -29.707031 10.351562 -29.78125 9.65625 -29.78125 L 8.859375 -29.78125 L 8.859375 -6.390625 Z M 10.125 -6.390625 "/></g></g></g><g fill="#e69233" fill-opacity="1"><g transform="translate(445.557873, 97.125015)"><g><path d="M 0.625 0 L 4.109375 -36.078125 L 16.34375 -36.078125 L 19.78125 0 L 12.9375 0 L 12.4375 -5.84375 L 8.0625 -5.84375 L 7.640625 0 Z M 8.609375 -11.59375 L 11.890625 -11.59375 L 10.296875 -29.953125 L 9.953125 -29.953125 Z M 1.046875 -37.96875 L 5.953125 -46.234375 L 14.3125 -46.234375 L 19.265625 -37.96875 L 11.921875 -37.96875 L 10.15625 -43.796875 L 8.390625 -37.96875 Z M 1.046875 -37.96875 "/></g></g></g><g fill="#e69233" fill-opacity="1"><g transform="translate(464.625881, 97.125015)"><g><path d="M 1.59375 0 L 1.59375 -36.078125 L 9.03125 -36.078125 L 12.34375 -18.8125 L 12.34375 -36.078125 L 19.3125 -36.078125 L 19.3125 0 L 12.265625 0 L 8.65625 -18.0625 L 8.65625 0 Z M 1.59375 0 "/></g></g></g><g fill="#e69233" fill-opacity="1"><g transform="translate(484.239863, 97.125015)"><g/></g></g><g fill="#e69233" fill-opacity="1"><g transform="translate(492.765894, 97.125015)"><g><path d="M 4.703125 0 L 4.703125 -29.140625 L 0.421875 -29.140625 L 0.421875 -36.078125 L 16.21875 -36.078125 L 16.21875 -29.140625 L 11.921875 -29.140625 L 11.921875 0 Z M 4.703125 0 "/></g></g></g><g fill="#e69233" fill-opacity="1"><g transform="translate(508.095895, 97.125015)"><g><path d="M 10.203125 0.34375 C 7.296875 0.34375 5.082031 -0.546875 3.5625 -2.328125 C 2.050781 -4.109375 1.296875 -6.609375 1.296875 -9.828125 L 1.296875 -27 C 1.296875 -30.113281 2.050781 -32.457031 3.5625 -34.03125 C 5.082031 -35.613281 7.296875 -36.40625 10.203125 -36.40625 C 13.117188 -36.40625 15.332031 -35.613281 16.84375 -34.03125 C 18.351562 -32.457031 19.109375 -30.113281 19.109375 -27 L 19.109375 -9.828125 C 19.109375 -6.578125 18.351562 -4.066406 16.84375 -2.296875 C 15.332031 -0.535156 13.117188 0.34375 10.203125 0.34375 Z M 10.203125 -6.296875 C 10.847656 -6.296875 11.28125 -6.578125 11.5 -7.140625 C 11.726562 -7.703125 11.84375 -8.484375 11.84375 -9.484375 L 11.84375 -27.125 C 11.84375 -27.914062 11.738281 -28.554688 11.53125 -29.046875 C 11.320312 -29.535156 10.894531 -29.78125 10.25 -29.78125 C 9.039062 -29.78125 8.4375 -28.867188 8.4375 -27.046875 L 8.4375 -9.453125 C 8.4375 -8.410156 8.5625 -7.625 8.8125 -7.09375 C 9.070312 -6.5625 9.535156 -6.296875 10.203125 -6.296875 Z M 6.546875 8.5625 L 6.546875 2.4375 L 13.90625 2.4375 L 13.90625 8.5625 Z M 1.09375 -38.171875 L 6 -44.96875 L 14.40625 -44.96875 L 19.3125 -38.171875 L 11.96875 -38.171875 L 10.203125 -42.578125 L 8.4375 -38.171875 Z M 1.09375 -38.171875 "/></g></g></g><g fill="#e69233" fill-opacity="1"><g transform="translate(527.205879, 97.125015)"><g><path d="M 10 0.34375 C 7.363281 0.34375 5.253906 -0.484375 3.671875 -2.140625 C 2.085938 -3.796875 1.296875 -6.066406 1.296875 -8.953125 L 1.296875 -25.578125 C 1.296875 -29.160156 2.007812 -31.859375 3.4375 -33.671875 C 4.875 -35.492188 7.113281 -36.40625 10.15625 -36.40625 C 12.820312 -36.40625 14.96875 -35.675781 16.59375 -34.21875 C 18.21875 -32.769531 19.03125 -30.675781 19.03125 -27.9375 L 19.03125 -21.71875 L 11.84375 -21.71875 L 11.84375 -27.046875 C 11.84375 -28.085938 11.71875 -28.800781 11.46875 -29.1875 C 11.21875 -29.582031 10.78125 -29.78125 10.15625 -29.78125 C 9.519531 -29.78125 9.082031 -29.554688 8.84375 -29.109375 C 8.601562 -28.660156 8.484375 -28 8.484375 -27.125 L 8.484375 -9.03125 C 8.484375 -8.082031 8.625 -7.390625 8.90625 -6.953125 C 9.1875 -6.515625 9.601562 -6.296875 10.15625 -6.296875 C 11.28125 -6.296875 11.84375 -7.207031 11.84375 -9.03125 L 11.84375 -15.546875 L 19.109375 -15.546875 L 19.109375 -8.734375 C 19.109375 -2.679688 16.070312 0.34375 10 0.34375 Z M 10 0.34375 "/></g></g></g><g clip-path="url(#68f345e70a)"><path stroke-linecap="round" transform="matrix(0, 0.125, -0.130236, 0, 1491.929571, 17.272131)" fill="none" stroke-linejoin="miter" d="M 500.010499 49.998531 L 500.010499 6950.008995 " stroke="#231f20" stroke-width="18" stroke-opacity="1" stroke-miterlimit="10"/></g></svg>